<?xml version="1.0" encoding="utf-8" ?>
<svg baseProfile="full" height="300mm" version="1.1" viewBox="0,0,200,300" width="200mm" xmlns="http://www.w3.org/2000/svg" xmlns:ev="http://www.w3.org/2001/xml-events" xmlns:xlink="http://www.w3.org/1999/xlink"><defs /><rect fill="#222222" height="300" width="200" x="0" y="0" /><text fill="#FFFFFF" style="font-size:12px; font-family:Arial; font-weight:bold;" x="10" y="20">Over 10km Runs</text><text fill="#FFFFFF" style="font-size:4px; font-family:Arial" x="10" y="280">Runner</text><text fill="#FFFFFF" style="font-size:9px; font-family:Arial" x="10" y="290">Sakae</text><text fill="#FFFFFF" style="font-size:4px; font-family:Arial" x="65" y="280">SPECIAL TRACKS</text><rect fill="yellow" height="2.6" width="2.6" x="65" y="283" /><text fill="#FFFFFF" style="font-size:3px; font-family:Arial" x="70" y="285.5">Over 20.0 km</text><rect fill="red" height="2.6" width="2.6" x="65" y="287" /><text fill="#FFFFFF" style="font-size:3px; font-family:Arial" x="70" y="289.5">Over 40.0 km</text><text fill="#FFFFFF" style="font-size:4px; font-family:Arial" x="120" y="280">STATISTICS</text><text fill="#FFFFFF" style="font-size:3px; font-family:Arial" x="120" y="285">Number: 23</text><text fill="#FFFFFF" style="font-size:3px; font-family:Arial" x="120" y="290">Weekly: 1.2</text><text fill="#FFFFFF" style="font-size:3px; font-family:Arial" x="141" y="285">Total: 418.9 km</text><text fill="#FFFFFF" style="font-size:3px; font-family:Arial" x="141" y="290">Avg: 18.2 km</text><text fill="#FFFFFF" style="font-size:3px; font-family:Arial" x="167" y="285">Min: 10.0 km</text><text fill="#FFFFFF" style="font-size:3px; font-family:Arial" x="167" y="290">Max: 42.5 km</text><polyline fill="none" points="25.648427981635905,38.85160360598093 24.348440195564763,36.91112556785811 24.23553803053801,36.479452138679335 24.219409149809508,35.7507424370051 24.26457001583185,35.47747200147933 24.758113765885355,33.600159555229766 24.92907990149979,33.28726339068453 25.903264297012356,32.0 26.00971490977099,32.00396089021888 26.97099620071822,32.887227108538355 27.467765726920334,34.02395072552463 26.916158006264595,34.40813037203043 26.61938660099986,34.859634549560724 26.490355555244605,35.23192265411126 26.432291584656923,35.69529645123475 26.516161764404387,36.09133708963782 26.97422197686683,36.895284444486606 27.65486074326327,37.91702077305672 27.81937532660959,38.099187374427856 28.75807618453109,38.79220297053325 28.838720588144497,38.97832459152778 29.09033112738689,39.28720488245017 29.306458129023667,39.71884027346459 29.409682965648244,40.37618202203157 29.55161711598339,40.67712914084768 29.464521160087315,41.005791826457425 29.99677422386594,41.31861219802158 30.280642524536233,41.28297458914312 30.40967357030604,41.342370581780415 32.77416748391988,43.084603785824584 33.09997087446391,42.85495122227803 33.267711233958835,42.81535578545663 33.81286740231735,42.91434428529101 34.27737916706246,43.136077409260906 34.59350522917521,43.40532270024778 35.7354299841827,44.63669496998409 36.61284109536791,45.34540535087217 37.79024938796647,46.628170662315824 38.06766613635409,46.83008272236111 38.02250527033175,47.43581122963951 37.82250714940892,47.899007616866584 37.39347892224032,48.603686649454175 38.4192757360579,50.020915295535815 38.51927479651931,50.08425365272706 38.577338767121546,50.036749896640686 38.564435662541655,49.76756060863045 38.71282136517402,49.066866069679236 38.66120894685446,48.44533316743036 38.525726348816534,47.902966531346465 38.593467647835496,47.89108978644799 38.6579831707204,47.958391282380035 38.84185241092928,48.83725659983247 38.71927291744214,49.52212133591456 38.73217602203658,49.97737010198762 38.59024187171599,50.70971317429212 38.52895212495059,51.80621703230645 38.570887214838876,52.23372456621291 38.50959746808803,52.704767897885176 38.325728227879154,53.401424272764416 38.12250433079316,53.82099406507041 37.506381087281625,54.474087004200555 36.60961531923385,55.05196415006867 36.12574889761163,55.23403286260873 35.47414211652358,55.29340287025843 34.91608284358517,55.21028482860129 34.19996053959767,54.735320435360336 33.94189844807261,54.38305060878338 32.95481094798015,53.413298965424474 31.88385326815478,52.96205753594404 31.725790237091132,52.835392127381056 31.322568219082314,52.76810092445885 29.938710253263707,52.87101682438151 28.30001597206865,53.14809644266643 25.5355258165946,53.94765555920094 24.48392279363179,54.4028411516374 24.45811658447201,54.474087004200555 24.758113765885355,54.996551726912 24.72263022827974,55.214242835500045 24.787145751179196,55.37652069530304 24.771016870436142,55.51109195282697 24.22263492595812,56.10082400323154 24.161345179221826,56.21560279918049 24.148442074641935,56.44120129787916 22.606521077774232,59.041405664163904 21.9613658489543,60.33549232180667 21.53556339793431,60.98053732250992 21.151696036788053,61.882786980379024 21.05814852860931,62.420958839618834 21.06137430475792,62.91559408780813 21.238791992684128,63.69512367606876 21.62588512999355,64.47463422318106 21.90007610223256,64.84657670833985 22.474264255855815,65.45196318604576 22.645230391499354,65.74476036897249 22.954904901329428,66.06129484247867 23.44199709908571,66.48069818460863 24.590373406375875,67.18101034941355 26.474226674516103,68.0 26.012940685919602,67.91691505115887 25.248431739775697,67.67557183044482 24.558115644947975,67.40653133518208 23.906508863830823,67.03461868125669 22.7871645418345,66.16416787045455 22.035558700270485,65.32534735608715 21.635562458410277,64.73182895719947 22.35813631468045,65.61814570056958 23.00006576735177,66.28286710611792 23.867799550120253,66.91592224120541 24.8516612740641,67.45005274551295 25.69036307152419,67.76261385812904 26.22584191142232,67.89317645462143 25.406494770824793,67.66370244464633 24.525857883505523,67.2799232586367 23.690381862179493,66.80118192959708 22.871034721581964,66.14438462159524 21.97104317738558,65.135422669322 21.371048814587994,64.23722185975566 21.05169697632664,63.42209263678524 20.954923691999284,62.68608428607695 21.03556809561269,61.946101787856605 21.3097590678517,61.19423033662679 23.638769443889032,57.050705052715784 24.000056372009567,56.45703271154707 24.590373406375875,55.732737492267916 25.609718667910784,54.89760073184152 26.332292524180957,54.462212706483115 26.99357663372939,54.16931196353107 28.406466584827285,53.76162131653109 30.770960498441127,52.91059977438999 31.099989665133762,52.835392127381056 31.432244607975008,52.83143382526032 31.964497671753634,52.94226609901307 32.79997369306511,53.28663534907173 33.1773895019287,53.5043381289579 34.42576486968028,54.759068823001144 34.8451157684176,55.05196415006867 35.45801323579508,55.241948870010674 35.95800853813125,55.23007485816197 36.66767928983609,54.956971365721984 37.8321844778402,54.15743755234507 38.187019853678066,53.714123038123944 38.42895306448918,53.09663898130384 38.567661438690266,50.33364721111138 38.73217602203658,48.98769057721074 38.7224986936053,48.6828630955315 38.29669624257076,46.723188261639734 37.62250902847154,44.949479706338025 38.05153725564014,46.06993654663529 38.51282324423664,47.70106126630344 38.72895024588797,47.87525411970273 38.79669154492149,47.85545952519169 38.8966906053829,47.69314338671393 39.04507630801527,47.376426590722986 39.0224958750041,47.28536992953741 37.84831335855415,46.679638563764456 36.77735567872878,45.53148870500081 36.20639330121048,45.0445023095308 34.283830719359685,43.1241988881593 33.82254473074863,42.90246568153452 33.34190408527502,42.823274876751384 33.0806162176159,42.88266799878693 32.77416748391988,43.08064427288991 30.335480718989857,41.28297458914312 30.035483537591062,41.31861219802158 29.467746936250478,41.009751597179275 29.54516556368617,40.69296838415903 29.393554084919742,40.26134618805372 29.31290968133544,39.734679993100144 29.5387140114035,39.50104332990304 29.932258700981038,39.37432442315912 30.022580433025723,39.24760501248238 29.922581372549757,38.863483719793294 29.183878635551082,38.336794419708895 29.53548823525489,37.80217607603481 29.29355502445833,37.64772910665488 28.91613921559474,38.15858930187096 28.26130665835808,37.8853395186743 27.922600163219613,37.36655449664249 27.925825939353672,37.07745688779687 28.07743741813465,36.93884751482983 27.990341462238575,36.713110959502956 27.935503267784952,36.13886163539064 27.609699877240928,36.134901259280014" stroke="red" stroke-linecap="round" stroke-linejoin="round" stroke-width="0.5"><title>2025-10-26 42.1km</title><desc>1761435527000</desc></polyline><polyline fill="none" points="93.91316657507559,36.56438093695033 94.2093497577589,36.143984446141985 94.32041845121421,35.46834424627741 93.0492989589111,35.04794404389395 83.2382310325047,33.636590095185966 77.20349868526682,33.0059799530427 76.45069976261584,33.18615460621368 76.1174936821335,32.91589252837002 74.34039458591724,32.61560064067453 71.92156526067993,32.58557141199708 69.98403360735392,32.825805038366525 68.78695991059067,33.33629995081719 66.94815598486457,34.747657313448144 62.530090176383965,39.79237798918621 63.29523006500676,43.84602285525034 63.11011557589518,46.51835338480305 61.98708767484641,49.040500229384634 59.65464511117898,52.0129646737696 59.062278745812364,53.76938749276451 60.234670510631986,58.37800276555936 63.751845805032644,62.31095286274649 64.4923037616536,64.29239199295262 65.12169302493567,65.32813168540451 65.640013594646,67.4145955668937 65.17105688870652,68.0 64.82550984225236,67.8198758528888 64.0973928514286,65.52327008087013 64.51698569359723,65.08796093169803 63.93696029414423,63.97716515481443 64.30718927254202,63.58688319919747 64.24548444274114,63.31668728074874 63.418639724492095,61.95068780650763 60.247011476545595,58.42303725021338 59.012914882041514,53.8594597882111 59.666986077150796,51.982940136083926 62.38199858501321,48.34991749604524 63.09777460992336,46.443288705580926 63.30757103097858,45.03206428995327 63.24586620123591,43.24549122603639 62.86329625698272,41.053526129966485 62.5547721083276,40.51303563824331 62.60413597209845,39.98755651551619 62.90031915483996,39.7022954888962 62.38199858501321,39.13177146943781 66.07194740267005,35.10800130286225 68.35502610256663,32.975950818756246 71.08237957645906,32.0 86.20006285927957,33.426387070408964 93.03695799299749,34.56748492656334 92.99993509514024,35.032929724649875 94.2093497577589,35.37825860846351 94.27105458750157,35.648515325759945" stroke="#4dd2ff" stroke-linecap="round" stroke-linejoin="round" stroke-width="0.5"><title>2025-10-18 10.2km</title><desc>1760741438000</desc></polyline><polyline fill="none" points="141.33333333331393,44.55609012750938 140.8673460019636,45.34006424537802 140.6293950242689,46.90799399851676 140.2922978058923,54.65079346966377 140.32204167812597,57.41248777489818 140.11383457260672,59.715851202192425 140.66905352059985,59.61937631395267 140.52033415954793,57.20747379362001 140.68888276873622,55.651765739312395 141.07555310742464,40.00891873950604 140.82768750569085,39.22490272183495 139.13228678965243,37.95840229073656 134.85908381524496,35.256480954936706 133.7585605434142,34.67748828863114 132.74726888822624,34.412115526640264 129.693564674526,34.02611752139637 125.47984944458585,33.18174167669349 119.72936748364009,32.80780151865474 117.191223721602,32.421797304246866 115.069494170486,32.31323334976332 112.8585330027854,33.169679112812446 111.58946112176636,34.267366449712426 111.75800973095465,34.605113969009835 108.2085743137286,38.621809284057235 108.81336638203356,42.01114706674707 108.67456164502073,43.86860006143252 108.1292573211831,45.38830860527378 105.80923528864514,48.53620265996142 105.41265032585943,49.82668990712409 106.32479574036552,53.50508999310841 109.2694390892866,56.86980278851843 110.36996236111736,59.40230747437454 110.69714495539665,60.84942415264959 110.10226751118898,61.46444238635013 110.27081612037728,63.86418316759227 109.74534104461782,65.74534664842213 108.60515927657252,67.68676665023668 109.7651702928124,66.0709290359082 109.99320664640982,64.98565028035227 110.42945010552648,64.35859495334444 110.13201138342265,63.38182784534729 110.06260901491623,61.71768408676144 110.18158450373448,61.4282649480956 109.39832920220215,59.25759465230658 109.78499954089057,58.96816837864026 109.29918296146207,58.05164630708168 109.59662168362411,57.66573975848587 109.16037822450744,56.713026576297125 106.30496649217093,53.55333040482947 105.33333333331393,49.91111372474552 105.6803451757296,48.680931032773515 107.92105021566385,45.6657132217224 108.55558615620248,44.15807014043094 108.76379326166352,42.240315215654846 108.40686679515056,39.6470659586048 108.15900119341677,39.261088212129835 108.17883044149494,38.694180689133646 108.48618378769606,38.175517792500614 111.76792435505195,34.508614794489404 113.49306894332403,33.169679112812446 114.51427522255108,32.81986412630067 116.27907830715412,32.75955107354821 118.87670981360134,32.96461530401575 119.37244101712713,33.22999191755662" stroke="#4dd2ff" stroke-linecap="round" stroke-linejoin="round" stroke-width="0.5"><title>2025-08-30 15.3km</title><desc>1756508975000</desc></polyline><polyline fill="none" points="187.66963817510987,36.45210902579856 188.0,35.1200254053183 187.78290508652572,34.9477718485432 182.69533298374154,34.05204831575975 174.81384373363107,33.12186493418267 174.44572627166053,33.3285731398355 173.91714735189453,33.07592971622944 171.19874147878727,32.84625329325354 169.34871525957715,33.06444590829051 168.30099632934434,33.52379714306153 166.9323544834624,34.695132733293576 163.70424750918755,38.43871626076725 164.3083377032308,41.699877332102915 164.3083377032308,42.607011383348436 164.0912427896983,43.66340973725892 163.2794965915382,45.42022010988876 161.5238594651455,47.670727094911854 161.06135291029932,49.014116562095296 161.94861038279487,52.60787703356618 164.62926061882172,55.61596816412202 165.82800209755078,58.486195321631385 166.08285264816368,59.64574249972793 165.5731515469961,60.11644573138619 165.70529627689393,62.3666045686623 165.01625589927426,64.60523012012709 163.5909805977717,66.68308663788775 163.70424750918755,66.88972181855934 162.64708966965554,65.66138386281091 162.2600943891448,66.3042543062329 161.81646565283882,66.59124863556644 159.08862087049056,66.88972181855934 158.54116413212614,67.11931593671034 157.32354483479867,67.03895805846696 155.53015207132557,66.72900560576818 154.52962768747238,66.38461280582851 154.0482433141442,66.4190521419805 152.0,65.7302630469494 155.5962244363036,66.76344481712295 159.10749868903076,67.17671437958779 159.58888306241715,66.91268125534407 161.7692711065174,66.60272839071695 162.2695332983858,66.24685533635056 162.2978500262252,65.99429945687734 162.59989512321772,65.74174290610972 163.70424750918755,66.91268125534407 163.5909805977717,66.66012714562385 164.96906135289464,64.61671011522412 165.52595700050006,62.74545260058221 165.5731515469961,60.15088733971788 164.8746722600772,58.02696480393206 165.21447299426654,57.751425427726645 164.78028316725977,56.91332157942088 165.01625589927426,56.41964050968818 164.64813843736192,55.66189248131559 162.94913476664806,53.721570732777764 162.50550603040028,53.43453752317146 161.96748820139328,52.699728554340254 160.9952805453795,49.037080319438246 161.59937073942274,47.48701423790044 163.5626638699905,44.949444047124416 164.1101206082967,43.46820657868375 164.27058206609217,42.59552872796485 164.21394861035515,41.11425454448181 163.68536969064735,38.415749940570095 163.98741478763986,37.89900626835151 167.10225485055707,34.465460227031144 168.75406397483312,33.16780012988602 169.85841636074474,32.84625329325354 170.46250655478798,32.98405921372614 171.0288411116926,32.82328562041221 174.0964866282302,33.052962098954595 174.45516518090153,33.31708936241921 174.84216046147048,33.08741352280049 179.75983219716,33.54676464648219 180.85474567388883,33.9946298523937 181.50603041425347,33.79940681724838 182.0818038804573,34.00611354787543 187.32039853173774,34.741067167859 187.9716832721606,34.97073900746909 187.9811221814598,35.246344481733104" stroke="#4dd2ff" stroke-linecap="round" stroke-linejoin="round" stroke-width="0.5"><title>2025-08-02 14.1km</title><desc>1754088361000</desc></polyline><polyline fill="none" points="46.475452467857394,75.6302764881475 46.68525660253363,74.69435658441216 45.46139915002277,74.24057454806461 36.323263504658826,72.93594141068024 30.367157235799823,72.34034319560305 29.830991113733035,72.55305719115859 29.271513421088457,72.19853365082236 27.756261337024625,72.0 24.492641463701148,72.0283619706679 23.18719351431355,72.35452414063184 22.429567472310737,72.76577080082643 20.599609186174348,74.32565881363553 17.126185178058222,78.19692758640304 16.694921123387758,78.8917571708007 16.683265338127967,79.44478185670596 16.951348399103153,79.95526386724669 17.347645097994246,82.52182030235417 17.394268239091616,84.19501469290117 17.137840963318013,85.34354956699826 16.228689712879714,87.38536157049384 13.862565304734744,90.51890668635315 13.384678108908702,92.14945134508889 14.51528927939944,96.41711745088105 17.813876508560497,100.1458813330537 19.16594759892905,103.22237674138887 19.585555868339725,105.03704587979155 18.94448767893482,105.73171647993149 18.93283189367503,108.0 18.96779924951261,105.60412422909576 18.081959569535684,103.0522500705265 18.513223624206148,102.69781871373561 17.965401716937777,101.63451821837225 18.291763704270124,101.28008257815236 18.23348477797117,100.9965332949796 17.813876508560497,100.13170374811307 14.480321923620068,96.41711745088105 13.314743397408165,92.07855857040704 14.002434727852233,90.13607987195428 16.19372235710034,87.34282418300427 17.06790625175927,85.34354956699826 17.359300883312244,83.93978319330927 17.324333527532872,82.46510143009073 16.928036828583572,79.98362391378032 16.648297982348595,79.4731420267126 16.659953767550178,78.84921670236508 17.032938895979896,78.22528805815818 20.925971173506696,73.90023686822678 22.27804226387525,72.76577080082643 24.259525758388918,72.0 27.266718356055208,72.0 29.16661135375034,72.18435268691974 29.87761425471399,72.51051442288735 30.46040351787815,72.29780035015574 36.34657507517841,72.86503701993206 36.53306763933506,73.06356920600956 37.61705566867022,73.27628188951348 38.47958377812756,73.1911968624263 41.06716810626676,73.61662138042448" stroke="#4dd2ff" stroke-linecap="round" stroke-linejoin="round" stroke-width="0.5"><title>2025-07-05 10.0km</title><desc>1751662201000</desc></polyline><polyline fill="none" points="78.08337036809826,72.2010632342899 77.45404651301214,73.07584855387358 77.54104981094133,73.42504988865039 77.45404651301214,73.795410376164 77.58165134998853,74.22572808908626 77.60485222944408,76.32431784544133 77.56135058046493,77.02616546631907 76.4100069377455,77.02616546631907 75.59507604707323,76.92036037221442 74.4437324043538,77.00500447816557 70.09356750744337,76.99089714422007 69.01182650309056,77.03321912563115 67.60817329635029,76.98737030967095 66.81354317518708,77.06143374583371 67.82568154120236,77.01558497416227 69.60344892907597,77.05438009333739 70.35457740127458,77.01558497416227 74.80334603584197,77.02616546631907 75.63857769603783,76.94152142170788 76.26790155112394,77.05790691980292 77.11763376099407,77.06848739661473 79.69583148988022,76.98031663927395 80.55716413946357,77.02263863603002 81.58090294520662,77.35768561195982 81.53160107637814,78.40159680426041 81.63310492396704,78.68725518833162 81.49969986712676,79.21977138300281 81.56060217566846,80.20014004363475 81.64180525374832,80.65857452801356 80.12214764975943,80.78552434380435 80.08734633059066,80.84547267612106 80.1366481994337,82.13256895534505 80.03514435184479,82.23835516837244 79.66393028062885,82.40408613187356 79.61172830186842,82.52397602997917 79.54792588339478,84.19533101373781 79.54212566350179,87.65057191098276 79.6030279720726,87.65057191098276 79.53922555359895,87.71403169825498 79.53052522380312,87.87268056352514 79.51602467412886,91.63064408229548 79.6610301706969,94.3271963330917 79.71323214947188,94.3730179476097 80.47016084151983,94.39416636086389 84.31570661038859,94.383592156144 84.4317110076372,94.49638347589826 84.44621155728237,95.11320330934541 84.49841353605734,95.24713961070847 84.6173180432379,95.34582912438236 85.47575058290386,95.62074815599408 85.74836091641919,96.06484266977895 86.28488125371223,96.54417521090363 86.4820887290407,96.65343373458563 86.49948938863236,97.03407314468677 86.4588878495997,97.30192753724805 86.18337740612333,97.54863335981099 85.95716883147543,97.87287213276977 85.9716693811497,98.4543783180834 86.3399833424046,99.16979127669401 85.92236751230666,99.93452370840168 85.59465509006986,100.20939960502074 85.30174398700183,100.6463764820528 85.10453651168791,100.49132091811043 84.75072310007818,100.45960490604193 84.18230155354831,100.18120732425996 83.95029275903653,100.41731683645048 83.33546945361013,100.7098080667547 83.16726307760109,100.9071498950052 83.07155944986152,101.16792098310543 83.04255835055665,101.56964486678771 83.17886351732886,101.97841087488632 83.17016318751848,102.44355145326881 82.92365384336154,103.10953531474479 82.82214999578719,103.26105333547093 82.80764944611292,103.63808314392918 82.75834757728444,103.7755040153861 82.39873394582537,104.0221552425719 82.00141888523649,104.12433871322355 81.88541448798787,104.37451053144105 81.3836954698636,104.25823375523942 81.1168853561976,104.08910307399856 81.04728271783097,104.138432957021 81.01538150859415,104.99112207619328 81.06758348736912,105.37517641363593 84.26060452168167,105.33289544911713 84.31860672030598,106.66119322735722 83.72408418440318,106.73870476358934 83.40507209196221,107.01351673761383 83.11216098892328,107.15796815068461 81.43879755857051,107.30594202959946 81.20678876405873,107.40106769949125 81.50550008699065,107.28480294984729 82.54663955231081,107.23547837105252 82.56694032183441,108.0 82.60464175093512,107.92953801263138 82.60754186086706,107.22490880763326 82.9381543930358,107.19672328652996 83.26586681525805,107.10159695237598 83.75308528372261,106.72108852338897 84.32730705011636,106.66823973914325 84.25770441176428,105.30823152493213 81.05888315757329,105.36108276558298 81.02118172845803,105.20605218896344 81.0530829377094,104.15957431000243 81.12848579592537,104.09967377022622 81.39239579965943,104.26880439036177 81.90281514757953,104.38508112453928 82.01301932496426,104.13138583597356 82.4277350451157,104.00453736673626 82.78444856667193,103.77902761897894 82.83085032558301,103.64865400310919 82.82795021565107,103.2962899719987 83.17016318751848,102.46117026919819 83.18466373719275,101.99955378890627 83.05125868035248,101.58374034146982 83.09186021938513,101.13972962620755 83.19336406698858,100.88600619138379 83.33546945361013,100.72742792697682 83.97059352857468,100.40674480951384 84.19100188334414,100.18120732425996 84.78262430930045,100.47017691388282 85.09583618189208,100.48779691846357 85.3162445366761,100.65342444269481 85.56855410068238,100.24816394670961 85.95716883147543,99.8922348796259 86.3602841119282,99.17683959315764 86.33708323247265,99.04996963672056 86.00357059038652,98.48257226347414 85.95426872155804,97.8975423270258 86.05867267906433,97.68608284384572 86.4617879595171,97.30545192078353 86.5197901581414,97.04112197593531 86.5023894985643,96.68867833256809 85.69035871779488,96.00492554963785 85.45834992329765,95.59607604078883 84.6608196922025,95.34230450462383 84.52161441549833,95.25066424192664 84.45781199702469,95.09910471561307 84.44621155728237,94.46466096120639 83.92709187959554,94.04874036212823 83.61388000701845,93.72093436453724 83.4079722019087,93.40369925422783 83.05415879028442,93.13933403262126 82.46253636429901,92.91021557339445 81.73750888148788,92.46959810453882 81.4822992075351,92.45549823587135 81.40979645925108,92.34622402310924 81.1980884342629,91.56366772332512 81.27349129247887,91.25345942773129 81.50550008699065,90.9784993225403 81.7491093212011,90.23820925954897 81.8158118496358,89.77287447982599 81.79551108011219,88.82455566857425 81.68530690272746,88.04543057060255 81.70270756230457,87.6540974583404 81.84191283900873,87.32974532136905 81.90571525749692,86.9348769909102 82.02751987460942,86.59641417489729 81.94051657666569,86.37782152259206 81.92891613695247,85.90184799354756 81.85931349860039,85.67619857426507 81.74040899143438,84.73479860204134 81.57510272534273,84.36457681967659 81.51710052670387,83.74400407112807 81.78101053045248,83.18688776081581 81.84771305885806,81.72705158964163 81.82161206948513,81.42026514630743 81.55770206575107,80.20014004363475 81.5084001969226,79.53716052305754 81.50550008699065,79.15629314106445 81.62150448423927,78.7260480867335 81.51420041678648,78.40512346802097 81.58090294520662,77.37179276871029 80.58906534871494,77.02263863603002 80.12214764975943,76.96973613050613 80.06994567101356,75.28738646571401 77.59035167976981,75.26975125982062 77.55555036060105,74.10933130074955 77.45404651301214,73.75661092638438 77.53814970102394,73.37919540616349 77.46274684280797,73.02646620980522 78.08337036809826,72.20459064708484 78.31537916259549,72.00352743709664 78.52128696771979,72.0 78.4951859783323,72.07407608955145 78.33277982218715,72.1798987485272 78.31247905266355,72.25750178795533 78.44878421942121,72.57143925104901" stroke="red" stroke-linecap="round" stroke-linejoin="round" stroke-width="0.5"><title>2024-12-08 42.5km</title><desc>1733616819000</desc></polyline><polyline fill="none" points="132.70112179481657,77.5918358064373 132.97155448724516,77.17070352080918 133.2311698718113,75.98626022970711 133.71794871793827,76.07838405914663 135.08092948718695,76.85485323708417 135.7624198718113,77.49971325822844 136.3249198718113,77.65763757883542 137.76362179487478,78.56569797488919 140.7600160256261,80.64499613911175 140.97636217949912,80.97399537281308 140.8249198718113,81.31615352087101 140.95472756412346,82.84269215227687 140.5112179487478,94.94896445807535 140.63020833331393,95.92267133514542 140.45713141030865,97.22531961847562 140.18669871793827,106.61971538824582 139.79727564100176,107.11967451807868 140.92227564100176,107.01442015524663 140.6193910256843,106.65918592931848 140.6193910256843,102.92257793345925 140.85737179487478,99.56741570862505 141.33333333331393,81.36879314043472 141.25761217949912,80.76343597779487 140.96554487175308,80.35547599062556 135.03766025643563,76.39423659662862 132.87419871799648,75.38087312452262 126.11338141025044,74.17008881006768 124.88020833331393,74.18324958157609 124.25280448718695,73.88055143447127 123.05208333331393,73.9200338492592 121.46193910256261,73.59101328847464 118.33573717944091,73.48572649892594 114.6037660256261,72.88032548191404 112.51602564100176,73.025095596764 110.49318910256261,73.90687304591847 108.65424679481657,75.57828233325563 105.33333333331393,79.19738769451214 105.76602564100176,79.57903178995184 105.50641025637742,79.75011319135228 107.42107371788006,77.38126986732823 109.9955929487478,74.69651842825988 111.02323717944091,73.89371224099887 112.23477564100176,73.49888735317654 115.64222756406525,73.41992220369139 116.0100160256261,73.64365664505021 117.31891025637742,73.73578245777026 117.57852564100176,73.93319465098466 118.43309294868959,73.77526492505422 122.88982371799648,74.19641035146196 124.38261217944091,74.39382170895988 125.04246794868959,74.68335771885904 125.78886217949912,74.53858981020312 132.39823717949912,75.59144293441932 133.25280448718695,75.86781519152282 132.8850160256261,77.9998061539809 133.11217948718695,78.13140916560951" stroke="#4dd2ff" stroke-linecap="round" stroke-linejoin="round" stroke-width="0.5"><title>2024-11-23 11.9km</title><desc>1732351269000</desc></polyline><polyline fill="none" points="179.54347826098092,76.73816770116537 172.22826086956775,75.54798720409599 171.19565217394847,75.56121150302351 164.84782608703244,74.74130194554164 164.1304347825935,74.96611646826204 163.9130434783292,74.70162874649395 162.40217391308397,74.45036481820716 159.7934782609227,74.39746707555605 158.42391304351622,74.6222823052085 157.413043478271,75.0190139358383 155.92391304351622,76.24887284279248 152.27173913049046,80.29540774165798 152.0,79.8986952547275 155.06521739135496,76.53980518466415 156.84782608703244,74.87354583842534 158.02173913049046,74.278447060904 159.5434782609227,73.85526373745961 162.4565217391937,74.02718216011999 163.60869565221947,74.34456930725719 168.09782608703244,74.595833478641 169.40217391308397,74.89999459777755 170.22826086962596,74.76775073690806 179.4565217391355,76.28854548042727 181.22826086962596,77.05554697912885 187.40217391308397,81.02271022977948 187.90217391308397,81.65744299370272 188.0,82.26572510198457 187.81521739129676,82.47730069437966 187.96739130438073,83.04590807054774 187.913043478271,86.44426726211532 187.32608695654199,106.14473626254039 186.92391304351622,106.14473626254039 186.89130434783874,105.91998581848748 187.07608695654199,103.92365278608486 187.53260869567748,82.13349014888809 187.34782608703244,81.71033722443826 186.68478260876145,81.15494652608322 180.78260869567748,77.30680492084502 180.56521739135496,77.26713265264698 180.3695652174647,77.92833524353046 180.14130434783874,77.99445528273645 179.8695652174647,79.1052659630659 179.7065217391937,79.07881822089257" stroke="#4dd2ff" stroke-linecap="round" stroke-linejoin="round" stroke-width="0.5"><title>2024-11-21 11.1km</title><desc>1732184803000</desc></polyline><polyline fill="none" points="42.70490517173312,114.68662913174194 42.90498241854948,113.83016391554702 42.23064799414715,113.47855955675186 37.16202440854977,112.85648624384339 36.309843542578164,112.63109608116065 35.146431403787574,112.6040492158354 32.671401758212596,112.2614547390258 32.16009323857725,112.4147208838258 31.87109277100535,112.22539207091904 30.16673103903304,112.02704708448437 28.617984943441115,112.12621964369464 27.9140094454051,112.32456436622306 26.572750865045236,113.28923344585928 24.09772121947026,116.00286175646033 23.882823435851606,116.39051488015684 24.297798466228414,118.77949545625597 24.312619003059808,119.79816955343995 24.142182829848025,120.6455515608177 23.475258673832286,121.99773694621399 22.245154119445942,123.51215546592721 21.7338455998688,124.79217570528999 22.452641634678002,127.53242685505393 24.616440007433994,129.9390775424181 25.498261947039282,131.98512022982322 25.735390535817714,133.0847323172493 25.320415505440906,133.3821655880456 25.416748994612135,135.17575320062315 24.97213289065985,136.7620058032917 24.386721687042154,137.8164846064683 23.764259141433286,138.60958704674704 23.853182362247026,138.77181150707474 22.95653988586855,137.8525349003321 22.734231833863305,138.05982375188614 22.712001028674422,138.28513706761441 22.297025998239405,138.56452463400637 20.644536145060556,138.78082396676473 20.222150846238947,139.0061351047989 18.22878864669474,138.83489870195626 17.035735434270464,138.49242471706384 17.176530533848563,138.42032473043218 17.532223417103523,138.6366244812889 20.02207359948079,138.9430480547453 20.740869634289993,138.73576165749546 22.26738492466393,138.55551214821025 22.712001028674422,138.26711202742445 22.771283175883582,138.023773558205 23.038052838266594,137.86154747106775 23.86800289907842,138.6906993210141 24.031028803845402,138.6366244812889 24.26074712423724,138.96107293164096 24.868389133014716,140.65539191306743 24.660901617840864,141.09699000653927 23.91246450948529,141.21414824565727 23.008411764662014,142.08832314475876 23.67533592064865,144.44043361196236 24.149593098234618,144.81892722049815 24.253336855850648,146.08957029196608 24.090310951025458,146.41398633183417 24.21628551383037,146.46805553467857 24.208875245443778,146.612239884038 25.290774431807222,147.2971117385241 28.469779575418215,147.63954530841147 29.507217151432997,147.90988649033534 31.018911905004643,148.0 31.189348078187322,147.4593173096364 31.58209230340435,146.85555034175923 32.07858028620831,146.51311317377258 32.50096558500081,145.6660250058485 32.50096558500081,144.90904446334753 32.34534994859132,144.35932758889976 31.848861965816468,143.66541689856967 29.98888459740556,142.16041958643473 28.669856822205475,140.5202083006152 27.86954783499823,139.84428656392993 27.017366969026625,139.47478009205952 25.97251912462525,139.56490379055322 24.801696717418963,140.44811027384276 24.868389133014716,140.76353862662654 24.742414570238907,141.0699534637024 23.897643972624792,141.2321725738293 23.00100149627542,142.08832314475876 23.667925652232952,144.44944538685377 24.23110605063266,144.9180561816247 25.031415037839906,144.90003274394257 25.15738960064482,144.53956307598855 25.327825773856603,144.49450424503448 25.86136509865173,144.80991549021564 26.068852613825584,145.08927862246492 26.43195576540893,145.17038385199703 27.995522397803143,145.0712552261466 28.469779575418215,144.7107863854253 29.58873010383104,144.76485682254133 29.522037688206183,146.77444694400765 29.81844842422288,147.26106600814092 30.0778078182193,147.22502026039 29.529447956592776,147.28810030755267 29.75916627701372,147.26106600814092 29.766576545429416,147.34216887697403 29.48498634621501,147.90087513339677 28.469779575418215,147.65756808435253 26.446776302269427,147.54041996295564 25.253723089845153,147.2971117385241 24.194054708670592,146.612239884038 24.223695782246068,145.79218768292048 24.06808014586568,144.53055131198198 23.897643972624792,144.08897354190412 23.54195108942804,144.07996172345156 22.993591227859724,142.16041958643473 23.104745253862347,141.9170938166135 23.94951585144736,141.1961239131706 24.631260544265388,141.12402653960453 24.794286449061474,140.95279499814933 24.838748059468344,140.68242860615283 24.59420920224511,139.84428656392993 24.43859356586472,139.80823723260255 24.3200292714464,139.16835870281648 23.853182362247026,138.42933723255555 24.742414570238907,137.2216522424642 25.12774852704024,136.26630548860703 25.290774431807222,135.49120384857815 25.72056999904453,134.84227535077662 25.735390535817714,134.22939325217885 25.327825773856603,134.14827612649242 25.28336416342063,133.56242759916495 25.30559496866772,133.35512624881085 25.683518657053355,133.09374546406616 25.66869812022196,132.90446915160283 24.860978864657227,130.4798872344545 24.6090297390474,129.9841451665343 22.437821097875712,127.5414406729542 22.215513045870466,126.40569103923917 21.711614794679917,124.86428886777867 21.97838445706293,123.82765545276197 23.53454082107055,121.85350500676577 24.127362293045735,120.5644196578578 24.297798466228414,119.689992433734 24.282977929455228,118.87865903299098 23.82354128867155,116.41756037172308 24.05325960906339,115.97581611445639 24.334849808277795,115.78649634573958 26.550520059856353,113.28021790476487 27.49903441502829,112.48684601938294 28.729138969414635,112.0 29.077421584224794,112.13523532433464 30.57429580099415,112.05409415918257 31.811810623825295,112.1532666823623 32.17491377537954,112.40570523696078 32.54542719540768,112.2163764011566 36.34689488456934,112.61306483871886 37.13238333497429,112.82943946031446 37.717794538562885,112.79337706699152 42.275109604524914,113.50560610478715 42.90498241854948,113.7219781356398 42.96426456575864,114.22684376535472 42.70490517173312,114.64155226042203" stroke="#ffa700" stroke-linecap="round" stroke-linejoin="round" stroke-width="0.5"><title>2024-11-09 21.2km</title><desc>1731137460000</desc></polyline><polyline fill="none" points="85.34588657255517,116.33546249107894 85.41851602779934,116.46800515853829 85.55167002917733,116.24710063264502 85.69692893966567,115.49602224701812 87.21004259132314,116.14401171672216 93.49249047291232,120.2527737872515 94.27930957183708,121.06272844730847 93.57722483744146,147.9648889934324 93.98879175068578,147.9501658451627 94.60614212055225,125.89289166244271 94.66666666668607,121.35725607902714 94.29141448100563,120.38531219116703 93.10513337817974,119.64898589961376 92.24568482406903,118.80956849661743 86.58058731228812,115.34875143207319 85.9753418515902,117.82287748458475 85.29746693564812,117.54306813063886 85.66061421204358,115.43711394241109 84.49854292755481,114.96584647973941 70.38421878498048,113.11021311568766 68.93162967939861,113.00712154410576 68.10849585290998,113.213304600009 67.63640439364826,112.85984771900257 64.9975341851241,112.63893664737407 63.67809908092022,112.62420922829915 61.14817305537872,113.05130365692457 60.5429275946226,113.36057799764967 59.15086303517455,114.70075773046119 58.66666666668607,114.36203237767768 60.26451468275627,112.99239416961791 61.317641784320585,112.535844676735 62.90338489128044,112.0351110065676 65.14279309572885,112.07929347208119 69.14951804524753,112.6683914800451 75.68616902042413,113.11021311568766 80.61286707018735,114.11166955484077 84.47433310915949,114.59766750541894 84.40170365385711,115.12784487575118 84.76485093025258,115.12784487575118" stroke="#4dd2ff" stroke-linecap="round" stroke-linejoin="round" stroke-width="0.5"><title>2024-10-30 10.4km</title><desc>1730286535000</desc></polyline><polyline fill="none" points="133.71401266899193,114.75944279955729 133.91414001068915,113.7674979945732 133.20998825284187,113.45187642560632 127.46559233343578,112.67634346726118 123.90036080151913,112.34268145683018 123.7002334598219,112.22544850409031 123.270330281317,112.38777100494917 122.99608170191641,112.19839471960586 120.77985669561895,112.0 119.55685627408093,112.11723330721725 118.61551655567018,112.45991422523366 117.59264347582939,113.28955624134687 114.89463042464922,116.40964901098778 114.87239405335276,116.84248393887538 115.34676997442148,118.47460971467808 115.35418209820637,119.83619007570087 114.80568493946339,121.43218308965879 113.22690257706563,123.56012064791139 112.76735090350849,124.83144420033932 113.44926629008842,127.5182836778331 115.62843067757785,129.95258487371757 116.03609748475719,131.14265876945865 116.44376429196564,131.83685977463028 116.7328371188778,133.04493443299725 116.31775818791357,133.3875192085252 116.38446730180294,135.3438284434087 116.02868536100141,136.5518463160697 115.61360643003718,137.4353096910345 114.87980617707944,138.45398406706227 115.36159422196215,139.16614638847386 115.85820651435643,140.81581274604105 115.66549129641498,141.11328968333692 114.92427891970146,141.23047724213393 114.01258769637207,142.05078500066884 114.56108485511504,144.06095160412224 115.20593962285784,144.96235402113962 115.280060860503,146.14317471416143 114.98357590986416,146.41358903756918 116.25846119775088,147.2969356659596 119.47532291265088,147.65748230562167 120.50560811624746,147.9369047533546 123.3815121378284,148.0 123.50010611809557,147.60340042072494 122.93678471181192,147.08060684610973 122.85525135038188,146.79216744425503 123.49269399433979,145.73755139191053 123.50751824185136,144.85418630597997 123.17397267234628,144.06095160412224 122.84783922659699,143.69137346600473 121.32094173057703,142.4744569049726 119.61615326418541,140.46424756392662 118.54880744178081,139.6439223640482 117.9632496641716,139.46362990247144 117.28133427759167,139.46362990247144 116.79213410901139,139.6619515862185 115.83597014305997,140.3921314243853 115.66549129641498,140.329029745124 115.6061943062814,139.80618520698044 115.39865484079928,139.77012682794884 115.280060860503,139.07599963490793 114.85756980581209,138.45398406706227 115.73220041030436,137.20092246820423 116.295521816588,135.4790552968625 116.71060074758134,134.97420712670282 116.7328371188778,134.20791319764976 116.31034606415778,134.1448062880081 116.26587332156487,133.63994908911263 116.3029339403729,133.39653457610984 116.68095225247089,132.9728111218792 116.39929154934362,131.82784421856923 116.01386111346073,131.14265876945865 115.6061943062814,129.95258487371757 113.44926629008842,127.54533190533402 112.71546603715979,124.84947700267367 112.78958727480494,124.37160626801051 113.32326018606545,123.34372299139795 114.73897582554491,121.51333436434652 115.19111537534627,120.2419542493808 115.25782448923565,118.5377298835665 114.82792131075985,116.40964901098778 115.04287289999775,116.02189892129536 117.34063126775436,113.47892975529976 118.79340752607095,112.26152020149311 119.52720777897048,112.0811615400089 120.11276555660879,112.17134092529159 120.49078386870679,112.04508975537465 121.90649950821535,112.07214359549107 122.80336648397497,112.16232299167314 123.27774240510189,112.4058068165541 123.55199098447338,112.24348435497814 125.041827861598,112.4689321228725 127.39147109573241,112.59518257509626 128.38469568052096,112.93786129647924 128.83683523032232,112.78455785266851 129.10367168590892,112.98295048467844 129.82264769132598,112.96491481269186 132.95056392098195,113.4699119798388 133.90672788693337,113.75848025400774 133.95120062952628,114.16427750012372 133.7807217828813,114.39873712456028 133.6176550600212,115.1201467296487" stroke="#4dd2ff" stroke-linecap="round" stroke-linejoin="round" stroke-width="0.5"><title>2024-10-20 16.0km</title><desc>1729414858000</desc></polyline><polyline fill="none" points="179.84926138073206,116.07842887220613 179.76243593607796,115.82754918779392 178.7856496833847,115.51064770977246 171.86132047028514,114.59955083652312 170.35272836894728,114.24303259904991 167.89990955678513,114.12419292786217 164.8284594512661,113.67524189137475 164.17726861621486,113.92612652169919 163.6997286704718,113.59601504626335 159.46698824234772,113.35833416585228 157.8390111546032,113.79408205128857 155.90714501054026,115.16733673720591 152.30388905631844,119.30020095138025 152.0,118.86447504089301 155.04974374431185,115.57666892684938 157.00331624958199,113.76767313807068 157.82815797405783,113.3319251472276 159.61893277056515,112.84335714988993 166.45643653906882,113.43756118348392 170.40699427190702,113.9921486969979 171.83961410913616,113.9921486969979 179.51281278260285,115.29937954668276 181.2710280373576,116.11804140129243 187.4030750677921,120.07922173058614 187.88061501353513,120.69979362821323 188.0,121.21473358908406 187.27283690078184,144.21290912858967 187.24027735902928,146.734228536101 187.4899005125044,147.13024200333894 186.42628881515702,147.15664285011735 186.80615013564238,146.70782758723362 186.74103105213726,145.16336097456224 186.99065420555416,142.86642152402055 187.53331323480234,122.57469155348372 187.41392824833747,121.0166800453444 186.56738016277086,120.05281433751225 180.40277359058382,116.07842887220613 179.86011456133565,115.9331828093782 179.77328911668155,116.73863581343903" stroke="#4dd2ff" stroke-linecap="round" stroke-linejoin="round" stroke-width="0.5"><title>2024-10-16 11.4km</title><desc>1729075273000</desc></polyline><polyline fill="none" points="47.283082064794144,155.0526277212848 47.555635306984186,153.91156315177068 46.168820280436194,153.48244067437918 36.396984920080286,152.27308322460158 35.94005742578884,152.4291303662976 35.747666901908815,152.2438243519282 34.56927494291449,152.04876492935728 34.39291696267901,152.1365417279012 33.93598946838756,152.02925896113447 32.20447475317633,152.06827089285798 31.162359415291576,152.438883302646 29.711414214165416,153.59947430376633 27.242402490606764,156.3399632374203 26.969849248416722,156.7983277404419 27.442809286352713,159.46069132117555 27.450825558189536,160.4944058745823 27.274467577924952,161.26480716119113 26.737377365352586,162.53254009638476 25.102057912095916,164.66813744753745 24.693228048767196,165.82855248235865 25.45477387259598,168.85140402356046 27.779492703208234,171.435364738325 28.244436469307402,172.70293785024842 28.66929887625156,173.40496977371367 28.973917205817997,174.82851575550012 28.541038527007913,175.13077228612383 28.476908352400642,175.4720282985727 28.54905479887384,176.82728792863054 28.869705672055716,176.96378763674875 28.541038527007913,177.4415347967588 27.85965542148915,179.410993223697 26.85762144275941,180.80518473510165 26.985881792061264,180.95142720407603 25.999880357005168,179.98622201097896 25.759392202133313,180.22996178568428 25.743359658459667,180.4542017282074 25.422708785248687,180.6881905690825 23.5228523616679,180.9709261799435 23.081957411020994,181.22441243714275 20.316343629790936,180.92217873151822 19.30629337922437,180.53219808389986 18.809284525807016,180.57119623348262 17.7431203724409,180.2397113613697 16.885379286657553,179.76198076805304 16.572744685341604,179.7912296611612 16.067719560058322,179.410993223697 16.051687016384676,179.26474796298135 14.89734387290082,178.92350799059204 13.83117971959291,178.34827162761212 13.710935642127879,178.1532753196734 13.638789195654681,178.25077353254164 12.965422362001846,178.1337756629655 12.404283333889907,177.8997794148745 13.51854511818965,178.1337756629655 13.807130904082442,178.02652746681997 13.486480030900566,178.92350799059204 13.270040691510076,178.95275718762423 13.486480030900566,178.91375825589785 13.72696818577242,178.1922746189739 13.847212263237452,178.3677712324643 15.33823882357683,179.1477515635852 16.051687016384676,179.33299578429433 16.34828907411429,179.654734735901 16.98157454864122,179.7424815000777 17.65494138232316,180.1617147229772 21.366475239454303,181.07817046283162 23.057908595510526,181.20491352253157 23.538884905312443,180.92217873151822 25.25436707685003,180.72718864326453 25.743359658459667,180.43470262751362 25.775424745777855,180.17146430691355 26.047977987967897,179.9764724046836 26.969849248416722,180.85393225424195 27.186288587778108,180.80518473510165 27.51495573282591,181.39990245642548 27.699329984898213,181.47789789808303 27.835606606007786,182.68681760402978 28.052045945398277,183.19377854272898 27.835606606007786,183.5252512807274 26.953816704743076,183.70073629675608 26.055994259833824,184.5099122674801 26.793491268123034,187.08362286014017 27.194304859644035,187.3468386355744 27.402727927197702,187.73678635466058 28.26848528481787,187.5320640370628 28.629217517125653,187.20060775521415 29.198372817016207,187.50281794930197 29.35068198182853,187.81477567240654 30.160325436590938,188.0 30.376764775981428,187.90251356478257 31.92390523912036,186.68392318931 32.196458481339505,184.41242161652917 31.282603492756607,183.59349549895705 30.745513280155137,183.33026748206612 30.200406795775052,183.46675619058806 29.406795884598978,184.2271890552729 29.00598229316529,184.28568359422206 28.717396507272497,184.09070163280558 28.61318497348111,183.70073629675608 28.019980858109193,183.28152145878994 27.93981813977007,182.73556398653454 28.204355110181496,182.608823330811 27.843622877815505,182.58932475071924 27.490906917315442,181.39990245642548 26.985881792061264,180.6296934224738 27.827590334170964,179.43049257180246 28.380713090416975,178.09477633539063 28.629217517125653,177.09053715896152 28.54905479887384,175.28677521378268 28.965900933981175,174.7407636473872 28.220387653826037,172.400672224132 25.438741328951437,168.8124002089171 25.262383348686853,167.74953900057153 24.685211776959477,165.89681167042727 24.733309407922206,165.39949340615567 25.11809045576956,164.59987721974903 26.873653986433055,162.24973986059922 27.274467577924952,161.16728841778968 27.458841829997255,159.82151771765348 27.15422350045992,157.57851664821646 26.961832976550795,157.2176802165195 26.97786552022444,156.73981326809007 29.855707107082708,153.42392379597732 30.49700885344646,152.88751709868666 31.811677433521254,152.11703578093147 33.102297198056476,152.0 35.49114620333421,152.1755536076962 35.94807369762566,152.39011860921164 36.42905000742758,152.28283617979469 40.76585306724883,152.73147084403172 41.69574059950537,152.97529298422887 41.96829384172452,152.8777642165951 42.38513997683185,153.0533159133629 43.355108868243406,153.0533159133629 47.122756628203206,153.67749662901042 47.59571666611009,153.85304658476525 47.587700394302374,154.4479630373171 47.29109833660186,155.07213295818656 47.387293598556425,155.51099954122037" stroke="#4dd2ff" stroke-linecap="round" stroke-linejoin="round" stroke-width="0.5"><title>2024-10-12 17.6km</title><desc>1728683828000</desc></polyline><polyline fill="none" points="82.67099761188729,156.8006526316094 82.5683594761067,156.5509126504985 82.85346540895989,155.12183452473982 84.8035899894312,156.16242715484987 85.25975948193809,156.77290377167083 86.44580016250256,157.1197640385435 90.14077305182582,159.88073436724517 90.98468661296647,160.21371122371056 90.3460493235034,183.49194802896818 90.10656033991836,185.90551171958214 90.17498576379148,187.5283967010837 89.78724169515772,188.0 90.92766542645404,187.93064669518208 90.61975101905409,187.54226741403545 90.6083467816934,183.6306599604577 91.36102644429775,160.92128383507952 91.16715440998087,160.019474841567 89.23983830411453,158.4933203966575 83.87984676711494,155.23283152162912 83.78861286857864,154.96921347858006 82.64818913734052,154.5945973227499 75.39509420632385,153.30424342244078 74.00377725414,153.23486914567184 73.23969335417496,152.90187203334062 73.06862979446305,153.04062094762048 62.05213655025,152.0 61.97230688907439,152.41624951179983 62.83902892482001,152.59662383121758 64.2873670635745,152.48562428358855 66.02081113512395,152.77699786698213 66.40855520381592,153.0683707103235 66.9559585948009,152.80474769350258 72.68088572582928,153.3736176572129 74.31169166159816,153.8592361260453 74.87049928994384,153.74823780012957 76.78641115844948,153.97023434459697 81.9525306611904,154.80271756036382 82.87627388350666,155.19120766035485 82.43150862836046,157.38337714000227" stroke="#4dd2ff" stroke-linecap="round" stroke-linejoin="round" stroke-width="0.5"><title>2024-10-09 10.0km</title><desc>1728470661000</desc></polyline><polyline fill="none" points="133.2004429678782,156.9259701332412 132.17839524813462,156.48944111129094 123.88241216144525,155.3253552018141 120.54444780020276,155.10047354139533 118.21765831060475,154.71685081820033 117.6305245141848,154.95496163238568 117.10862780624302,154.65070883338194 113.29225812939694,154.37291206036025 111.83529648644617,154.59779521675955 110.85674015904078,155.00787507624773 109.22581294667907,156.22487721977086 105.6377730795648,160.33877334232238 105.33333333331393,159.91548570553277 108.38860364438733,156.5820383221362 110.43269908381626,154.71685081820033 111.269908386108,154.28031297921552 112.90083559846971,153.85700189566705 114.91231249365956,153.8966873793397 118.04369274131022,154.41259735685162 126.03523608169053,155.08724519401585 128.85130373499123,155.74866060238128 132.75465619645547,156.31747465458466 135.0488271418144,157.37572548516619 139.2783650457859,160.24617931173998 140.6809624483576,161.00015699564392 141.22460485249758,161.62185398350994 141.33333333331393,162.28322987894353 141.19198630820028,162.69328092591604 141.33333333331393,164.10860660197068 140.6809624483576,186.14299810433295 140.224302828894,185.9975274768658 140.4635054866667,177.44086945105664 140.62659820803674,177.0308736751249 140.50699687906308,176.1976517194489 140.97452934656758,163.20914941469528 140.83318232157035,161.8731772948231 140.61572535987943,161.4895783245447 137.6148192891851,159.3731460269919 135.94040068454342,158.50010577410285 133.83106815663632,157.0582513111076 133.26568005629815,156.87305761734024 133.1243330312427,157.8254789877319" stroke="#4dd2ff" stroke-linecap="round" stroke-linejoin="round" stroke-width="0.5"><title>2024-10-05 11.1km</title><desc>1728079331000</desc></polyline><polyline fill="none" points="185.9213404034963,156.12428947479202 186.16993478877703,155.54689795665035 186.0908365752548,155.06573611783097 184.1472804720397,154.57082467310101 181.41274223383516,154.10340633003216 177.44653181394096,153.8009581426013 176.35045656969305,153.45726604372612 172.72323849337408,153.20980708906427 170.48588902578922,152.81112208448758 169.75140561466105,153.08607740970183 169.24291709932731,152.7561309396624 165.38970412733033,152.4811748163047 163.00545797747327,153.01733864077687 160.94890442636097,154.68080518035276 159.7850307134213,156.39923678597552 157.44598354271147,158.73626208119094 157.07309196476126,159.24490239674924 157.71717741759494,162.44790939234372 157.80757537588943,163.94628082423878 157.59288022498367,165.26593105131178 156.914895537775,167.05293298541073 154.38375270570396,170.39317666910938 153.8526647007675,171.9876616866095 154.76794402842643,174.9291529614493 154.97133943455992,176.22118582492112 158.22566593292868,179.89102889317292 159.5816353072878,182.95601305745367 159.90932790609077,184.564065882063 159.27654219808755,185.08633455765812 159.31044143246254,187.46400111077674 159.72853198956,187.8763081728248 159.47993760422105,188.0 159.27654219808755,187.4090267228894 159.24264296371257,185.52613789802126 159.35564041155158,185.05884679244627 159.86412892694352,184.564065882063 159.4121391355293,182.69487412799936 158.67765572440112,181.52661368100962 158.7680536826956,181.21049408528052 158.18046695383964,179.8497953592523 154.9261404554709,176.22118582492112 153.83006521122297,171.96017075500276 153.97696189343696,171.25914975449996 154.7453445388819,169.77462042732805 157.03919273044448,166.7230270500586 157.71717741759494,164.42740507712006 157.6719784384477,162.35168302920647 157.35558558441699,160.8395437693107 156.8922960482305,159.71229959912307 155.75102182483533,157.87019360463455 156.47420549119124,157.27906371275458 157.2651876261225,158.2276194898368 160.248320249666,154.87327081202966 162.54216844122857,152.79737430076057 164.86991586716613,152.0 167.5140561470762,152.08248725604062 170.27119387482526,152.54991390949 177.85332262626616,153.19605935358413" stroke="#4dd2ff" stroke-linecap="round" stroke-linejoin="round" stroke-width="0.5"><title>2024-09-28 10.1km</title><desc>1727473373000</desc></polyline><polyline fill="none" points="40.85441297874786,196.73242123326418 40.35091415820352,198.87966536136446 39.073924396012444,199.06268860882847 38.9060914558213,199.45105195392534 37.64734440451139,204.60205301963651 36.43602840149833,213.36243214890783 36.31562650963315,217.21311698813224 36.388597353186924,218.47130557333367 37.48316000652267,227.47812777254148 37.37370374117745,227.55395582650817 36.65129239000089,227.62978372225552 32.192773848815705,228.0 37.224113511896576,227.5004301577792 37.42478333169129,227.42460199212655 36.271844003509614,218.0608374917756 36.23900712390605,216.0351988084294 36.34846338923671,213.48737387168512 36.4615681967407,212.5235265903575 37.530591054819524,204.89662889866668 37.79328609161894,203.66028682007527 37.12925141527376,203.47282333309704 35.73185976121749,202.83901103871176 33.181528778979555,202.3748034624041 30.120401891865185,202.3658763354142 30.003648542173323,202.50424655668758 30.051079590484733,202.4015848301351 30.014594168707845,202.35694920624883 29.346910950174788,202.3524856408476 23.137092163669877,202.8925730692572 23.08966111537302,202.97291596686046 23.17722612763464,203.4951404656531 23.162631958926795,204.15125803021874 23.505594923641183,207.43613088832353 23.596808478076127,207.36026082022 23.498297839279985,207.41827912185545 23.571268682848313,207.4584455840486 26.566721810741,207.48968613502802 27.98600471788086,207.60572223183408 28.788683996986947,207.79316437391753 28.73395586431434,207.98506842138158 28.613553972449154,208.01184564968207 27.708715512388153,207.90473661798387 27.595610704884166,207.78423857956295 27.599259247042937,207.63249973996426 27.318321499347803,207.60572223183408 27.216162318378338,207.71283214582581 27.270890451050946,207.79762727026173 27.124948763943394,207.80655306131302 25.275137879842077,207.70390633174247 23.487352212745463,207.69498051543997 23.41802991136501,207.6458884866297 23.32316781472764,207.05677896199995 23.30127656167315,206.0882978280024 23.180874669807963,205.28939301824357 22.987501934403554,202.85686505768172 22.9254767173843,202.6783244727376 22.848857331642648,201.12498431746644 22.721158355430816,199.90190533586792 22.626296258807997,199.81709176115328 22.70656418672297,199.81262788330423 22.67737584929273,199.33945371718073 22.750346692846506,199.18767956435113 22.867100042538368,199.1385760260273 25.388242687346064,198.92430526294265 25.917281303118216,198.79038539341855 26.001197773206513,198.70110520578237 25.829716290856595,197.49133700529637 25.71296294115018,195.93777476286778 25.406485398227233,195.0359638615264 25.26784079548088,192.10269116539348 25.213112662822823,192.0535780356222 24.381245046301046,192.04018353414358 18.010890403966187,192.12948011725166 23.691670574698946,192.0 24.99055158995907,192.0044648393341 25.31527184379229,192.0625077005352 25.333514554673457,193.0179691424819 25.49769895267673,195.05382172072495 25.72026002551138,195.5984822029859 25.804176495599677,196.01366871693972 26.05592590587912,198.71003323441983 26.00849485755316,198.8305614061719 25.58526396493835,198.9868010328937 23.0641213201161,199.20107142690904 22.794129198984592,199.28142249842858 23.11884945278871,202.7809854164152 28.795981081333593,202.3212406676248 29.38704491413955,202.19179692053513 30.109456265330664,202.26321421740795 31.76589441402757,202.20518767440444 32.45546888561512,202.26321421740795 33.12680064630695,202.2364327475516 35.83766748436028,202.77205838935333 37.00155243904737,203.33445680488148 37.807880260341335,203.52638442818352 37.9939559113991,203.02201431671347 38.97906229937507,199.0894724212667 39.154192323912866,198.99126501234787 40.361859784738044,198.82163340718762 40.97116632842517,196.2725998358983 41.66438934220059,196.46010052693237 41.96356980076234,196.7725995250803 41.98910959601926,196.97349031669728 41.908841668089735,197.20116520237207 41.350614714901894,197.0359894472167 41.43453118499019,197.12080952353062 41.47831369112828,197.0583105391488 41.47101660676708,197.6163333744007" stroke="red" stroke-linecap="round" stroke-linejoin="round" stroke-width="0.5"><title>2024-03-10 42.1km</title><desc>1710029989000</desc></polyline><polyline fill="none" points="91.51502820018504,202.72366433113348 91.4128649960694,202.47047432076215 91.37624045120174,202.45640811220983 91.1352894981028,202.58769232883606 90.9521667737572,202.64630106734512 90.33147711858328,203.00263838768296 90.3430427643325,203.23472299214336 90.28906975084101,203.36600194341918 89.9286071250026,203.4363295877265 89.36574569857476,203.66137633689505 89.07467694723164,203.88407628011555 88.92625116012641,204.04582516314076 88.62747197829594,204.52403136800058 88.5253087741803,204.5263754870557 88.4096523167027,204.43261050448746 88.36724494894588,204.43261050448746 88.28628542870865,204.6201400166392 87.9817234239963,204.91315125214714 86.81166559576377,205.72887123412693 86.61697722566896,205.95623535008053 86.01556364673888,206.3476704242239 84.06096951523796,207.94380000687124 83.84700506889203,208.0000488760652 82.6711644177849,208.99609561068974 81.29870778896293,210.05536454878165 81.28906975083373,210.09051628851557 81.6071250089226,210.4514038034922 81.62640108516644,210.51701899482578 80.80138502177579,211.06536585525282 79.93203398300102,211.7566357777614 79.90311986863526,211.84567892835366 79.92625116012641,211.92769199541726 79.81637752552342,212.01439114694767 79.62554437066137,212.02610721881683 79.50217748268915,212.08000105844076 79.08966945098655,212.34009531276206 79.01834796887124,212.43147895376205 78.6521025201655,212.67282342588987 77.6362533019128,213.23516784494132 77.31627043619665,213.45072888975665 77.25844220745785,213.55382245702094 75.84936103375367,213.67097357395687 75.05904190760339,213.79983898668252 74.72942100377259,213.89121576142315 74.5424430641724,214.00133591891608 74.23595345184003,214.31529209051223 73.9583779538807,214.51912659031768 73.38202327406907,215.05564625894112 72.72856428928208,215.35084290291888 72.18497893909807,215.5288958532983 71.25587206397176,215.75848803901863 70.29399585920328,215.8803113625636 70.09159705860657,215.995105718579 69.31669879345282,216.2270351035113 68.9678018133709,216.2926307910584 67.88834154351207,216.66980169785165 66.7664739059037,216.97902952709046 65.89519525950163,217.13364159671073 64.93717427000229,217.18517867992523 64.91211537087656,217.2390582117132 64.9564503462534,217.37258510325046 64.8754908260089,217.44286204613127 63.79024773326819,217.5365642413617 62.55850646104955,217.47097275213673 62.52959234667651,217.43817692451194 62.51995430855459,217.25545630043416 62.253944456337194,217.24842854982126 61.63903762404516,217.13364159671073 61.33833083458012,217.01885396565922 60.974012993501674,216.81973095678768 60.54608410079527,216.53392730786254 60.12779324623261,216.12629843796458 59.9099735846321,215.86625486421144 59.52252445205522,215.2665014622453 59.25265938458324,214.92678917498415 59.05026058398653,214.7557593619331 58.71485685728112,214.55895607041566 58.66666666666424,214.64095768413426 58.74377097165416,214.58004223271018 59.217962447335594,214.9103891211762 59.42807167844148,215.14467429053366 59.9678018133709,215.9623074003448 60.23188405796827,216.29965888731203 60.63475405154168,216.6487178030511 60.9065467266264,216.83144413143054 61.26893696008483,217.00479829077995 61.20532590847142,217.15003977437482 61.16099093309458,217.1476971784159 61.27471978295944,217.00714090396468 61.72963518240431,217.1640953442202 62.496823017063434,217.25779888341094 62.52188191617461,217.27888211747086 62.51224387805996,217.4334918017612 62.54501320768031,217.48502808989542 63.97529806524835,217.54359188779017 64.79838652102626,217.4545748452383 64.9506675233788,217.38898307932322 64.9564503462534,217.29762275077155 64.91789819375117,217.23437304096296 64.9487399157515,217.20391940357695 65.31691297208454,217.15003977437482 65.94338545011851,217.1312989987764 66.68936960091378,216.99777044952316 67.77461269364721,216.71431206730995 68.91190119225212,216.32074316080616 70.114728350105,216.00213392242586 70.3094167201998,215.88499685976421 71.25587206397176,215.7655163284362 72.54736917254922,215.4351839775245 73.16420361246855,215.19387381720844 73.45527236381167,215.02518920712828 73.94488470049691,214.55192734456432 74.34775469407032,214.24266088993681 74.52702220317587,214.027108631597 74.63882344542071,213.94510442711362 74.85086028413207,213.86309987650384 75.8223745270152,213.68737467395658 78.73884486327734,213.43198454602134 79.16099093310186,213.342948666319 80.1961162275984,213.20002179563744 81.72470907402749,212.49708745654425 82.62297422716802,211.96518356789056 82.92175340900576,211.63244333341208 83.29185407295881,211.44966810315236 83.70821731990145,211.41686211053639 84.31926893695345,211.18487529575214 85.20789605196478,211.18956192549558 85.74955379452877,211.0442758776553 86.45120296993991,211.01381253625004 86.98900549724203,210.9060187907071 87.36681659169699,210.7419836822064 87.76197615476849,210.2615871803173 87.89690868851176,210.04833419319402 87.89883629613178,209.94522201891414 87.78510744626692,209.67337820788453 87.63860926678899,209.08749498702127 87.7118583565316,207.3344268120709 87.78125223102688,207.0578588213375 87.83329763689107,207.03910830648056 88.09352466623386,207.06957788393447 88.54844006567873,206.9805128308144 88.81830513314344,206.74378530863032 88.90119226100796,206.6078414663316 88.88384379238414,206.40392391796013 88.69686585277668,206.0031142181051 88.76047690439736,205.4405603297364 88.6428928392852,205.37492798077983 88.52338116656028,205.21319017358292 88.61976154779404,205.18037364244447 88.62939958591596,205.10302017095273 88.9898622117471,204.7139040932634 88.997572642249,204.6435810782641 89.10166345398466,204.47480480269223 89.22888555721147,204.40448092138467 89.28671378595755,204.32009192747137 89.46405368744308,204.18413110992697 89.76283286927355,204.06692274415036 89.92089669450797,204.05051351645852 90.54158634967462,204.11146200653275 91.00228457200137,204.06692274415036 91.28564289283531,204.03176009639355 91.68851288640872,203.88407628011555 91.99307489112834,203.81140605321343 92.207039337467,203.82312707595338 92.34197187120299,203.89110886828166 92.4190761761929,203.98956483498296 92.4711215820571,204.13724784855367 92.71592775041063,205.0936439716479 93.36553151995759,206.04530510253426 93.52937816805934,206.38986055981331 93.57756835867622,207.050827380388 93.38866281144146,207.1070788366851 93.42721496393642,207.72114663386128 93.49082601556438,207.7516151409618 93.6797315627773,207.73520902769815 94.16356107659522,207.50083446740246 94.66088384378963,208.50393772764983 94.66666666666424,208.52971773587524 94.59727279216168,208.56955949944677" stroke="red" stroke-linecap="round" stroke-linejoin="round" stroke-width="0.5"><title>2023-11-19 42.1km</title><desc>1700353429000</desc></polyline><polyline fill="none" points="117.72363097185735,192.14731877631857 116.88590372321778,193.54682336167025 116.48677712827339,194.03611368127895 116.53063719367492,194.115030982015 116.39028498445987,194.367565424629 116.45168907599873,194.25182064574255 116.24116076220525,194.14133671851232 116.49993514790549,194.00980788394008 116.14905462489696,194.18342586527797 115.30694136972306,194.22551497311724 115.27623932395363,194.30443194537656 113.02621797021129,194.8358026618116 113.14025414019125,195.493431095314 112.47796715301229,197.43469479686974 112.39463302880176,198.39214396166062 112.1446306561702,199.0391998483865 112.10077059079777,199.51264954723592 112.12708663003286,199.8914057604161 112.30252689152258,200.4069299861112 112.37708900266443,205.57237080671257 112.44726510727196,205.68808680144866 114.22359775492805,205.93529725941698 114.64026837600977,206.07731117081494 115.14027312127291,206.4665322127912 115.92098228496616,207.73936698313264 116.32888089295011,208.123314288041 120.57892122777412,209.9746311950621 120.60962327354355,209.75899872355149 120.9912058422924,210.07455809173553 121.5920887379325,210.2849297890425 123.42543947062222,211.45247504556755 123.49122956866631,211.5681760985426 123.3552633660147,212.17297227320887 124.1842186016147,212.38333427744874 124.47369503305526,212.6305083908701 124.98685779797961,216.0802879220828 125.57896868052194,217.96283180539103 125.53072260861518,218.25730090742582 125.3728263732919,218.44134312966708 125.72370689627132,219.25112007510688 126.09213144541718,219.66126134859587 126.48687203376903,220.82330824044038 126.8026645044738,221.1861131899168 127.24565116479062,221.48581944754187 127.38600337397656,221.7276862180479 127.67547980544623,221.7434600932611 129.95181719839456,223.0053524192008 130.71059632941615,223.2840155972699 131.84657202262315,224.0306142037407 132.99570573543315,225.36604880996674 133.23693609499605,225.84448239568155 134.25010360515444,227.26398106011402 134.5527380562562,227.81073912205466 134.5658960758592,228.0 134.486947958183,227.64250657079538 133.71501080758753,226.34394067070025 131.80271195722162,224.0253565098501 131.21498708124273,223.60999677496147 127.04828087060014,221.25972543582247 126.67547031489084,220.93372744393128 126.26318570037256,220.23440130246308 126.05704339311342,219.67703593922124 125.70177686357056,219.3037024959849 125.35528234712547,218.48866815236397 124.99562981104827,218.29410941136302 124.85089159529889,218.05748279576437 124.77632948415703,217.55267524132069 124.16667457544827,216.38002777001384 123.24561320259818,214.88656755572447 123.0482429084077,213.80851126650305 122.56139618271845,213.17218313990816 122.46929004543927,212.71991146324217 121.24120821495308,211.5681760985426 121.0833119796007,211.49980733003758 120.84646762657212,211.16322112713533 120.65786934547941,210.7319664191018 121.24120821495308,210.6425594441571 121.71489692098112,210.33226328700766 122.03946140475455,210.5899670239487 121.16664610381122,210.12189180836504 121.32015633262927,210.03774294477626 121.5394566594914,210.15344759212167 121.68419487524079,210.03774294477626 123.16227907838766,207.59735825567623 122.55701017621323,206.90834666080627 122.03068939168588,206.44549332261886 121.94296926094103,205.52503236045231 121.83331909752451,205.27255981584312 121.37717441760469,204.95696716621387 120.93418775734608,204.76235060842737 120.91664373117965,204.4309745552273 121.0701539599977,204.37311499700445 121.06576795343426,204.18375592870507 120.35084888781421,204.01543609565852 120.06137245637365,203.8576356869744 119.00873088737717,202.50052959203822 117.49117262539221,201.0960399851574 117.22801223312854,200.89614655584592 116.97362385393353,200.85932398627483 116.86397369051701,200.76463724200585 116.79379758593859,200.61734635944595 116.85958768395358,200.08604314397599 115.70168195807491,197.61356045654247 115.88589423263329,197.52412771456875 115.80256010845187,196.86652862651317 115.91659627843183,196.1247454504155 115.8727362130303,195.65652147608853 115.99554439607891,195.14620446670233 116.53063719367492,194.10976983289947 116.51309316750849,194.0150690446353 116.81134161207592,193.66256993389106 117.8508251614403,192.0" stroke="#ffa600" stroke-linecap="round" stroke-linejoin="round" stroke-width="0.5"><title>2023-10-19 21.4km</title><desc>1697664216000</desc></polyline><polyline fill="none" points="187.4072289156611,202.930687199987 186.79999999998836,201.70408688242605 187.3783132530516,196.81510650635755 188.0,194.39684089155344 184.4289156626328,193.20521707640728 183.20000000001164,193.83607794986165 181.6674698794959,195.32559979528014 182.28915662650252,196.9377710904373 182.2313253012253,198.47983139201824 182.79518072289648,200.02187547349604 181.43614457832882,197.53356903886015 181.10361445782473,197.3583345995139 177.4457831325708,205.36633455332776 174.97349397593644,208.32760669004347 172.4578313253005,212.55038244040043 172.61686746991472,213.391418689891 175.46506024099654,218.70034868609218 174.655421686708,219.06828720749763 174.3951807228732,218.98068288141803 171.7349397590151,214.42518580457545 169.30602409638232,211.0259919429227 167.62891566264443,210.21998596463527 166.31325301207835,208.38017311078147 165.17108433728572,207.94211902872485 163.49397590360604,210.1498982789053 155.91807228914695,222.41473328409484 153.92289156623883,224.97269816354674 152.0,226.79478292360727 154.24096385546727,224.56973405410827 155.75903614459094,222.53737645411456 154.96385542163625,221.04813102213666 153.25783132528886,219.10332892334554 155.58554216864286,217.12345885220566 156.814457831264,214.96834865614073 159.17108433734393,216.38757112677558 164.66506024094997,207.88955245089892 164.44819277105853,207.52158587859594 160.5590361445211,205.76935143697483 162.72771084337728,206.66299361873826 164.9542168675107,205.19110947575246 165.9662650602404,206.3300687366136 166.11084337346256,206.13732240672107 165.79277108435053,205.78687388502294 166.47228915663436,206.57538188091712 166.9493975903606,206.17236721285735 166.6891566265258,205.71678408019943 166.21204819279956,206.15484481083695 166.41445783129893,206.54033717118728 166.99277108430397,206.17236721285735 167.38313253014348,206.4352029915899 167.19518072297797,205.94457582349423 167.38313253014348,205.69926162376942 170.2313253011671,203.56150622447603 172.89156626502518,207.53910811728565 174.4240963855409,209.02849075058475 181.82650602411013,212.11234081664588 183.8650602409616,207.64424150534614 186.10602409637067,205.8394412167254 186.49638554215198,203.66664246469736 187.2771084337146,203.05334666730778" stroke="#4dd2ff" stroke-linecap="round" stroke-linejoin="round" stroke-width="0.5"><title>2023-10-02 10.4km</title><desc>1696246372000</desc></polyline><polyline fill="none" points="43.01512066833675,241.62081523332745 42.63538538297871,240.6854908983878 43.03961971908575,236.82534770262282 43.59084835916292,234.59828744209517 40.36922319600126,233.61836827678053 38.22555626241956,235.1179384079296 38.74003632651875,236.69172521302244 38.825783003820106,238.5921204377155 41.630924305529334,244.1595172140369 41.875914812262636,244.07044082985522 42.16990342026111,243.14998111961177 42.16990342026111,243.93682613379497 41.802417660248466,244.54551414083107 43.6275969351409,249.3406836573995 44.46056465792935,250.24625216954155 46.56748301559128,251.83469246854656 45.17103712732205,253.37857759608596 47.86593270103913,259.3906397523024 44.28907130326843,264.92741746553656 40.61421370273456,268.0 39.98948791064322,267.3617403142125 40.2834765186999,267.9703135756572 39.76899645465892,267.2875238588895 39.43825927062426,267.4062701660732 39.29126496653771,267.7476651671968 38.8380325291655,267.2875238588895 32.29678600025363,255.91703932304517 32.23553837358486,255.5162330245803 31.990547866909765,255.39747535450442 29.748884730564896,251.50809892544203 27.715463525033556,248.64294603922463 26.245520484808367,247.9452045023354 24.94707079930231,246.28248546929535 24.21209927921882,246.07464402541518 23.36688203108497,247.158384876544 16.641892622224987,257.9358958352241 16.213159235485364,258.2921612264836 16.15191160881659,258.0101178759869 21.590700857515913,249.28130188501382 23.869112569838762,246.00041485401016 23.624122063163668,245.70349772497138 19.42253487324342,243.90713395960483 23.99160782317631,245.76288120756362 24.922571748611517,244.73851215446484 20.561740729375742,239.75015952065587 17.193121262302157,236.76595994722447 13.640758915105835,234.1974123543623 12.134067298960872,232.6384413800988 12.7710426163394,232.0296950206539 13.469265560386702,232.0 22.729906713648234,240.44794708873815 25.547297540702857,237.92401605563646 28.303440741088707,241.9919737318778 35.82464929675916,236.4096328185624 33.81572714186041,234.1974123543623 36.13088743016124,236.17208083156584 40.7612080067629,232.87600012562325 40.98169946280541,233.1135584167132 40.79795658279909,233.44020032518165 44.77905231661862,234.761606551343 43.60309788445011,234.71706499741413 43.064118769718334,236.76595994722447 42.46389202831779,241.73958607356326" stroke="#4dd2ff" stroke-linecap="round" stroke-linejoin="round" stroke-width="0.5"><title>2023-09-30 15.0km</title><desc>1696068806000</desc></polyline><polyline fill="none" points="94.18225312096183,248.6548291971194 94.26298871194012,247.33379979076562 94.66666666665697,245.80725037182128 92.4868057112617,245.1516082289163 83.79965612618253,251.5805888121031 83.05688868951984,252.21660967617208 83.20221275318181,252.49058637198323 82.78238768031588,252.09919081158296 82.42715108016273,252.3340283723519 82.22531210281886,252.15790026492323 82.35448904833174,252.4808015057788 79.29461015170091,249.01688538679446 77.85751663299743,247.72521813349886 73.90147267695284,244.63296221679047 68.9200867159525,250.69015130178013 68.68595350222313,250.6705811378706 66.38498916046228,248.55697589806368 66.20737086038571,248.54719056170143 65.90057561482536,248.89946193314245 65.39194139192114,249.1440939381573 62.3482096134976,252.44166202928318 62.58234282722697,252.68628345054458 62.961800104618305,252.24596436602587 62.14637063615373,253.23423278218252 58.666666666656965,256.89365751180594 59.00575614857371,257.01106950117537 65.17395529636997,250.2791768768584 65.40808851009933,250.2791768768584 66.18315018311841,251.02284337292076 66.36076848316588,250.94456300720776 70.52672497567255,246.46288726366038 70.74471107122372,246.5118151793431 71.41481647602632,247.17723192967242 73.21522015394294,244.8286780790877 73.61889810865978,244.4666033659014 73.90147267695284,244.4959608347417 73.93376691333833,244.31003002094076 74.48276893171715,244.02624006987025 74.7895641772775,244.05559769663523 76.93713089628727,246.14974791067652 77.68797189203906,246.6683843131177 80.0212304701854,244.31003002094076 81.42602975253249,243.145506370769 81.93466397546581,244.61339060480532 83.00844733495614,243.68373364626314 83.21835987138911,243.81095048516727 84.39709949912503,243.21400822056603 85.2609703221533,242.9889304988319 85.38207370857708,243.41951342595712 87.58615534121054,246.59988535392768 88.63571802343358,247.64693461468414 90.67832847422687,246.12039103491406 90.76713762426516,246.3356745459605 90.47648949691211,246.6488131877486 90.87209389245254,247.21637392302364 91.34843387902947,246.8738808466951 91.50990506089875,248.4591224819742 92.3899230021052,250.1226146485351 93.40719144797185,250.80757218715007" stroke="#4dd2ff" stroke-linecap="round" stroke-linejoin="round" stroke-width="0.5"><title>2023-09-28 12.2km</title><desc>1695899344000</desc></polyline><polyline fill="none" points="136.500094215211,239.04391258065152 136.09308460523607,239.4385455010488 135.8997550404747,240.79508465413528 135.60467307333602,241.15271473306348 137.1818353118142,245.17288482647564 139.44073864712846,247.1459171496026 139.45091388729634,247.4911939279773 139.74599585455144,247.63916933652945 140.926323723339,249.2792159074379 141.33333333331393,251.80705619640503 141.03825136611704,252.95381210862251 137.74147352552973,258.02158083496033 134.66855097038206,260.6355151284952 134.42434520443203,260.58619622618426 134.07838703593006,260.09300590692146 134.38364424346946,260.62318540512933 133.95628415304236,260.0436867453973 133.48822310159449,260.42590963086695 132.85735820612172,259.5751535357558 129.68268324853852,253.80462277813785 125.06312417559093,246.06075403989962 123.94384774827631,244.54397284519655 122.74316939886194,244.038374159456 121.87827397772344,242.731205100652 121.14565667981515,242.39824429817963 119.41586583753815,244.71661573151505 113.69738081778632,253.87860598319094 109.2609760693158,257.8736203106819 105.5266628980753,260.9560874193485 105.33333333331393,260.8821092867147 111.90653853397816,255.25961607685895 113.28019596758531,253.87860598319094 119.79234972677659,243.6190953217083 121.71547013375675,241.27603516256931 121.44073864707025,240.93073758858372 121.71547013375675,241.18971087739192 122.10212926322129,240.8937413514359 122.62106651585782,241.362359375511 122.48878839268582,241.00473002313083 122.62106651585782,240.83208092665882 124.62558884487953,239.33988741243957 126.74203881662106,242.435239995968 127.39325419260422,243.01483752947388 128.4107782174833,243.29846917866234 132.0229885057197,244.86459511847352" stroke="#4dd2ff" stroke-linecap="round" stroke-linejoin="round" stroke-width="0.5"><title>2023-09-02 10.5km</title><desc>1693659795000</desc></polyline></svg>