<?xml version="1.0" encoding="utf-8" ?>
<svg baseProfile="full" height="200mm" version="1.1" viewBox="0,0,200,200" width="200mm" xmlns="http://www.w3.org/2000/svg" xmlns:ev="http://www.w3.org/2001/xml-events" xmlns:xlink="http://www.w3.org/1999/xlink"><defs /><rect fill="#1a1a1a" height="200" width="200" x="0" y="0" /><text alignment-baseline="middle" fill="#e1ed5e" style="dominant-baseline: central; font-size:9.0px; font-family:Arial;" text-anchor="middle" x="100.0" y="100.0">2024</text><line stroke="#e1ed5e" stroke-width="0.3" x1="100.0" x2="100.0" y1="15.0" y2="10.0" /><path d="M 100.0 14.0 a86.0,86.0 0 0,1 42.35913384403234,11.155469271406648" fill="none" id="id13" stroke="none" /><text fill="#e1ed5e" style="font-size:6.75px; font-family:Arial;" text-anchor="middle"><textPath startOffset="22.145653131862478" xlink:href="#id13">January</textPath></text><line stroke="#e1ed5e" stroke-width="0.3" x1="143.13028292997686" x2="145.6673583964461" y1="26.7553504044142" y2="22.446841604673864" /><path d="M 143.63769802327073 25.89364864446614 a86.0,86.0 0 0,1 29.32050498858742,28.57503671076993" fill="none" id="id14" stroke="none" /><text fill="#e1ed5e" style="font-size:6.75px; font-family:Arial;" text-anchor="middle"><textPath startOffset="20.669276256404974" xlink:href="#id14">February</textPath></text><path d="M 116.35404254752997 86.82634096563983 l 1.3389564548472717 -1.0785685402706577 a22.71933547745597,22.71933547745597 0 0,0 0.24205133427728942,0.30582395366611875 l -1.3572742197661205 1.0554246426898606" fill="#ff0000" stroke="none" /><line stroke="#e1ed5e" stroke-width="0.3" x1="172.87174338648825" x2="177.1583165268699" y1="56.24261187166439" y2="53.66864786411523" /><path d="M 173.72905801456457 55.72781907015455 a86.0,86.0 0 0,1 12.242430191666344,42.057860355516425" fill="none" id="id15" stroke="none" /><text fill="#e1ed5e" style="font-size:6.75px; font-family:Arial;" text-anchor="middle"><textPath startOffset="22.145653131862474" xlink:href="#id15">March</textPath></text><path d="M 119.4528033332814 92.08871423366111 l 57.87442385809075 -23.537024348579727 a83.47751957377612,83.47751957377612 0 0,0 0.5284577172704324,1.3320586616527175 l -58.2699402503273 22.540064669713445" fill="#4cd7ff" stroke="none" /><line stroke="#e1ed5e" stroke-width="0.3" x1="184.99686870605535" x2="189.99668451229388" y1="99.2704041080226" y2="99.22748670261217" /><path d="M 185.99683186730306 99.26182062694052 a86.0,86.0 0 0,1 -10.086455211305974,41.156179273409016" fill="none" id="id16" stroke="none" /><text fill="#e1ed5e" style="font-size:6.75px; font-family:Arial;" text-anchor="middle"><textPath startOffset="21.40746469413373" xlink:href="#id16">April</textPath></text><line stroke="#e1ed5e" stroke-width="0.3" x1="174.33088141563837" x2="178.70328620479359" y1="141.23008692659167" y2="143.65538615756765" /><path d="M 175.20536237346943 141.71514677278685 a86.0,86.0 0 0,1 -30.301960400862466,31.631185727798858" fill="none" id="id17" stroke="none" /><text fill="#e1ed5e" style="font-size:6.75px; font-family:Arial;" text-anchor="middle"><textPath startOffset="22.145653131862474" xlink:href="#id17">May</textPath></text><path d="M 114.13192950727249 115.5334660781643 l 3.5907597295276745 3.9468739512713342 a26.335856952957215,26.335856952957215 0 0,0 -0.33701741961125303,0.30136305476891917 l -3.5224772830930435 -4.007932535923641" fill="#ff3505" stroke="none" /><line stroke="#e1ed5e" stroke-width="0.3" x1="143.1302829299769" x2="145.66735839644613" y1="173.24464959558577" y2="177.55315839532614" /><path d="M 143.63769802327073 174.10635135553383 a86.0,86.0 0 0,1 -40.68552437913181,11.842963189579606" fill="none" id="id18" stroke="none" /><text fill="#e1ed5e" style="font-size:6.75px; font-family:Arial;" text-anchor="middle"><textPath startOffset="21.407464694133747" xlink:href="#id18">June</textPath></text><path d="M 110.02825361518725 118.45085714620011 l 1.5219012015288835 2.800126795508392 a24.18698812958868,24.18698812958868 0 0,0 -0.3665033397749039,0.19514238504742848 l -1.473609045967426 -2.825839648278389" fill="#ff1602" stroke="none" /><path d="M 109.06512990194946 118.94263497670748 l 1.4868152983389364 3.1068721329809277 a24.444310407333834,24.444310407333834 0 0,0 -0.38006396331536646,0.17788912538611343 l -1.4332626211520638 -3.1319374899375747" fill="#ff1902" stroke="none" /><path d="M 108.4095320186766 119.2426549942271 l 1.7743961547727591 4.060165649354249 a25.430962289872095,25.430962289872095 0 0,0 -0.40152452857071624,0.1713869451225065 l -1.7044365510316117 -4.090027244136159" fill="#ff2803" stroke="none" /><path d="M 103.94208987418118 120.62667999033965 l 0.8358523956155028 4.3735329314633935 a25.45268902236064,25.45268902236064 0 0,0 -0.42986593971226755,0.07833589380344302 l -0.7606517223521782 -4.3872369991982" fill="#ff2803" stroke="none" /><path d="M 101.80034050326958 120.92268563240118 l 0.34369337646400067 3.994238010329333 a25.00899768273628,25.00899768273628 0 0,0 -0.4280480560366523,0.03313362670234534 l -0.27507632565211254 -3.999549404026732" fill="#ff2203" stroke="none" /><line stroke="#e1ed5e" stroke-width="0.3" x1="101.45913802915013" x2="101.54496967792366" y1="184.9874750549273" y2="189.98673829345242" /><path d="M 101.47630435890484 185.9873277026323 a86.0,86.0 0 0,1 -42.54439059252881,-10.42667462771756" fill="none" id="id19" stroke="none" /><text fill="#e1ed5e" style="font-size:6.75px; font-family:Arial;" text-anchor="middle"><textPath startOffset="22.145653131862474" xlink:href="#id19">July</textPath></text><path d="M 99.27912038922189 120.98762331915562 l -0.1774252181082339 5.165541637327352 a26.16858782599109,26.16858782599109 0 0,0 -0.4488214864941186,-0.01927432579005772 l 0.2660724652031913 -5.161734743111466" fill="#ff3204" stroke="none" /><path d="M 94.30408787586889 120.21278271476187 l -1.1848566013566952 4.204638082443636 a25.368394049317647,25.368394049317647 0 0,0 -0.4181436001013967,-0.12171550789939449 l 1.2568602138396987 -4.183678880241725" fill="#ff2703" stroke="none" /><path d="M 93.61358852112213 120.00534299687104 l -2.9283108673661418 9.172892084525962 a30.628964312442626,30.628964312442626 0 0,0 -0.4995106593528721,-0.16419907527167404 l 3.0853442643667575 -9.121272087852267" fill="#ff710a" stroke="none" /><path d="M 93.27111125876986 119.89276391827306 l -1.2422017336919409 3.672348700877139 a24.87675252344295,24.87675252344295 0 0,0 -0.4033519354522268,-0.14030674102285026 l 1.3050594411891894 -3.6504835272856986" fill="#ff2003" stroke="none" /><line stroke="#e1ed5e" stroke-width="0.3" x1="58.13341422392154" x2="55.67067388415222" y1="173.97424548756322" y2="178.32567169271397" /><path d="M 57.64086615596768 174.84453072859336 a86.0,86.0 0 0,1 -31.369924170532247,-30.572349798747897" fill="none" id="id20" stroke="none" /><text fill="#e1ed5e" style="font-size:6.75px; font-family:Arial;" text-anchor="middle"><textPath startOffset="22.145653131862474" xlink:href="#id20">August</textPath></text><line stroke="#e1ed5e" stroke-width="0.3" x1="26.387840678322732" x2="22.057713659400548" y1="142.50000000000003" y2="145.00000000000006" /><path d="M 25.521815274538298 143.00000000000003 a86.0,86.0 0 0,1 -11.493303480769221,-40.785679425670985" fill="none" id="id21" stroke="none" /><text fill="#e1ed5e" style="font-size:6.75px; font-family:Arial;" text-anchor="middle"><textPath startOffset="21.40746469413373" xlink:href="#id21">September</textPath></text><path d="M 79.64726062577567 105.17358676015961 l -7.202309894601046 1.830799010793828 a28.431358747617544,28.431358747617544 0 0,0 -0.1161792961255084,-0.47405117447408757 l 7.232676717242849 -1.7068920117116408" fill="#ff5207" stroke="none" /><path d="M 79.56144815229197 104.8234425847677 l -7.374197949642594 1.7402906372156433 a28.57676757611671,28.57676757611671 0 0,0 -0.10857693639834123,-0.47841001556033846 l 7.402985747598601 -1.6134462877162785" fill="#ff5407" stroke="none" /><path d="M 79.407916724674 104.11899336999214 l -7.282641815305793 1.456732325340559 a28.426906548337104,28.426906548337104 0 0,0 -0.0916073411940288,-0.4793283187049449 l 7.306575448781978 -1.3315014416022994" fill="#ff5207" stroke="none" /><path d="M 79.22317932658666 103.0534771498775 l -7.426838544245245 1.0914895087726952 a28.506615756121242,28.506615756121242 0 0,0 -0.0669979905722933,-0.4847640847694549 l 7.444481051372751 -0.9638371158031548" fill="#ff5307" stroke="none" /><path d="M 79.13060592940153 102.33845913500099 l -7.3792118325869245 0.8268560774043298 a28.425392800581754,28.425392800581754 0 0,0 -0.050174347804116164,-0.4853913005057113 l 7.392318572872707 -0.7000602546156871" fill="#ff5207" stroke="none" /><path d="M 79.0935383218832 101.97986365728391 l -8.124235545060756 0.7693735528531023 a29.160584467760778,29.160584467760778 0 0,0 -0.04291657266261971,-0.49875562795446926 l 8.136245740421117 -0.629796877522971" fill="#ff5d08" stroke="none" /><path d="M 79.03789590574601 101.26102812881392 l -14.993886791952457 0.9019949962984107 a36.020993179654724,36.020993179654724 0 0,0 -0.03183297045762039,-0.6175511226314334 l 15.007161351866651 -0.6444720802902466" fill="#ffb911" stroke="none" /><line stroke="#e1ed5e" stroke-width="0.3" x1="15.003131293944662" x2="10.003315487706104" y1="100.72959589197737" y2="100.7725132973878" /><path d="M 14.003168132696942 100.73817937305945 a86.0,86.0 0 0,1 10.791469493833604,-42.45332614584628" fill="none" id="id22" stroke="none" /><text fill="#e1ed5e" style="font-size:6.75px; font-family:Arial;" text-anchor="middle"><textPath startOffset="22.145653131862435" xlink:href="#id22">October</textPath></text><path d="M 79.00077361379809 100.18025310272382 l -7.420073618406479 0.06369240788011953 a28.420346974730588,28.420346974730588 0 0,0 0.0,-0.4878910212078714 l 7.420073618406479 0.0636924078801168" fill="#ff5207" stroke="none" /><path d="M 79.00077361379809 99.81974689727619 l -8.655572765461812 -0.07429768212087082 a29.655891637709704,29.655891637709704 0 0,0 0.008739405423929269,-0.5090265524047645 l 8.653021928439218 0.22287115049468761" fill="#ff6309" stroke="none" /><path d="M 79.03789590574601 98.7389718711861 l -16.454980101439148 -0.989890741582371 a37.48472789642064,37.48472789642064 0 0,0 0.04415350880775614,-0.6419823277015952 l 16.435562631466325 1.2722164934382911" fill="#ffcc13" stroke="none" /><path d="M 79.13060592940154 97.66154086499901 l -7.372235855809459 -0.8260744046559235 a28.418373166382928,28.418373166382928 0 0,0 0.058484895245014,-0.48433883084751417 l 7.356968874304776 0.952506912426874" fill="#ff5207" stroke="none" /><path d="M 79.17382384314186 97.30363454192245 l -14.785525240916762 -1.9142822589644422 a35.908931323766055,35.908931323766055 0 0,0 0.08439536502239585,-0.610642819797986 l 14.750485359339157 2.167813386962495" fill="#ffb711" stroke="none" /><path d="M 79.34024301695615 96.23510406497455 l -25.706058530899266 -4.684500178193769 a47.12940847232322,47.12940847232322 0 0,0 0.1518772292319395,-0.7946858405498489 l 25.62185500938517 5.125088583776932" fill="#bdff1f" stroke="none" /><path d="M 79.64726062577567 94.8264132398404 l -16.405027299304518 -4.170093788122967 a37.926742240982705,37.926742240982705 0 0,0 0.16581304269190317,-0.6296191309921332 l 16.331024775807887 4.451093423487885" fill="#ffd213" stroke="none" /><path d="M 79.83685265289637 94.1308016681162 l -8.631333667521922 -2.512455436210911 a29.9895691331144,29.9895691331144 0 0,0 0.1481251653329611,-0.4930605002943213 l 8.58693218218533 2.660253540095956" fill="#ff6809" stroke="none" /><path d="M 80.05021161711548 93.44210830539832 l -22.559868460918274 -7.415876859029176 a44.74748185728793,44.74748185728793 0 0,0 0.24614221440204104,-0.7276757202743648 l 22.429240824943868 7.802054253777702" fill="#d9ff1c" stroke="none" /><path d="M 81.1358732173502 90.77261029715801 l -6.82539813672984 -3.3386442537368817 a28.59819749531989,28.59819749531989 0 0,0 0.2194980930611117,-0.4391432220656057 l 6.767080130456984 3.4553193319662574" fill="#ff5507" stroke="none" /><path d="M 81.46374523516351 90.13048839642627 l -13.61939493564383 -7.25156068775988 a36.429616029613484,36.429616029613484 0 0,0 0.2986441814869109,-0.5494716569407423 l 13.492905404541569 7.484287178175241" fill="#ffbe11" stroke="none" /><path d="M 81.63589988554816 89.8137432299009 l -6.508613615531695 -3.610218256923717 a28.44283058109681,28.44283058109681 0 0,0 0.24049989121679335,-0.4249402635255837 l 6.445680359293533 3.721415290548406" fill="#ff5207" stroke="none" /><line stroke="#e1ed5e" stroke-width="0.3" x1="26.387840678322718" x2="22.05771365940052" y1="57.49999999999999" y2="54.99999999999999" /><path d="M 25.521815274538284 56.99999999999999 a86.0,86.0 0 0,1 29.574782752854787,-30.34633250058573" fill="none" id="id23" stroke="none" /><text fill="#e1ed5e" style="font-size:6.75px; font-family:Arial;" text-anchor="middle"><textPath startOffset="21.40746469413373" xlink:href="#id23">November</textPath></text><path d="M 83.42222388311158 87.10902102172516 l -24.8718014160201 -19.340463216843187 a52.50650763128157,52.50650763128157 0 0,0 0.5594032555663194,-0.7067877391454669 l 24.536131729812222 19.764570899903337" fill="#81ff25" stroke="none" /><path d="M 86.40962598614128 83.9905735841838 l -10.657155337765726 -12.554102190852099 a37.467557247862416,37.467557247862416 0 0,0 0.4939038801174431,-0.41203218309418516 l 10.440077123486374 12.735196557858167" fill="#ffcc13" stroke="none" /><path d="M 86.96720088162412 83.53348406188908 l -10.939528757212061 -13.82173721852803 a38.62707318779589,38.62707318779589 0 0,0 0.5234705189092042,-0.4070538416869255 l 10.700648293667612 14.00749211183576" fill="#ffda14" stroke="none" /><line stroke="#e1ed5e" stroke-width="0.3" x1="56.869717070023135" x2="54.33264160355391" y1="26.7553504044142" y2="22.446841604673864" /><path d="M 56.362301976729285 25.89364864446614 a86.0,86.0 0 0,1 42.16139366436587,-11.88097634709845" fill="none" id="id24" stroke="none" /><text fill="#e1ed5e" style="font-size:6.75px; font-family:Arial;" text-anchor="middle"><textPath startOffset="22.145653131862474" xlink:href="#id24">December</textPath></text><path d="M 89.65649057296885 81.72400993836675 l -3.652253369106896 -6.453181751053203 a28.41501917625833,28.41501917625833 0 0,0 0.42657142566529677,-0.23661197910778772 l 3.540937755285497 6.514926645594136" fill="#ff5207" stroke="none" /><path d="M 90.28995756902619 81.37971332152246 l -3.8076942798589295 -7.3017558449393665 a29.23493619574412,29.23493619574412 0 0,0 0.44697819939970085,-0.22823025345925235 l 3.681788858745646 7.366044050071453" fill="#ff5e08" stroke="none" /><path d="M 91.5904679813234 80.7573450057729 l -25.22859605602979 -57.7279649826813 a84.0,84.0 0 0,0 1.3262596993182754,-0.5661014013623844 l 24.233901281541083 58.15254103370309" fill="#4dd2ff" stroke="none" /></svg>