<?xml version="1.0" encoding="utf-8" ?>
<svg baseProfile="full" height="200mm" version="1.1" viewBox="0,0,200,200" width="200mm" xmlns="http://www.w3.org/2000/svg" xmlns:ev="http://www.w3.org/2001/xml-events" xmlns:xlink="http://www.w3.org/1999/xlink"><defs /><rect fill="#1a1a1a" height="200" width="200" x="0" y="0" /><text alignment-baseline="middle" fill="#e1ed5e" style="dominant-baseline: central; font-size:9.0px; font-family:Arial;" text-anchor="middle" x="100.0" y="100.0">2023</text><line stroke="#e1ed5e" stroke-width="0.3" x1="100.0" x2="100.0" y1="15.0" y2="10.0" /><path d="M 100.0 14.0 a86.0,86.0 0 0,1 42.46469731375804,11.215312516191453" fill="none" id="id1" stroke="none" /><text fill="#e1ed5e" style="font-size:6.75px; font-family:Arial;" text-anchor="middle"><textPath startOffset="22.20632615414155" xlink:href="#id1">January</textPath></text><line stroke="#e1ed5e" stroke-width="0.3" x1="143.23703022742887" x2="145.7803849466894" y1="26.81831364943548" y2="22.513508569990506" /><path d="M 143.74570117128098 25.957352633546492 a86.0,86.0 0 0,1 28.547481713284135,27.462654790039103" fill="none" id="id2" stroke="none" /><text fill="#e1ed5e" style="font-size:6.75px; font-family:Arial;" text-anchor="middle"><textPath startOffset="19.985693538727396" xlink:href="#id2">February</textPath></text><line stroke="#e1ed5e" stroke-width="0.3" x1="172.23445277983987" x2="176.4835382374775" y1="55.19839476539836" y2="52.563006222186495" /><path d="M 173.08426987136738 54.67131705675599 a86.0,86.0 0 0,1 12.851231095245387,41.99856678651699" fill="none" id="id3" stroke="none" /><text fill="#e1ed5e" style="font-size:6.75px; font-family:Arial;" text-anchor="middle"><textPath startOffset="22.20632615414155" xlink:href="#id3">March</textPath></text><line stroke="#e1ed5e" stroke-width="0.3" x1="184.98032266829074" x2="189.97916517819016" y1="98.17113171792111" y2="98.06355123074" /><path d="M 185.9800911702706 98.14961562048488 a86.0,86.0 0 0,1 -9.607161424134198,41.387399972396054" fill="none" id="id4" stroke="none" /><text fill="#e1ed5e" style="font-size:6.75px; font-family:Arial;" text-anchor="middle"><textPath startOffset="21.466115282336823" xlink:href="#id4">April</textPath></text><line stroke="#e1ed5e" stroke-width="0.3" x1="174.80103733775053" x2="179.2010983576182" y1="140.37084112569926" y2="142.7455964860345" /><path d="M 175.68104954172406 140.8457921977663 a86.0,86.0 0 0,1 -30.038265399797805,32.042727171017184" fill="none" id="id5" stroke="none" /><text fill="#e1ed5e" style="font-size:6.75px; font-family:Arial;" text-anchor="middle"><textPath startOffset="22.206326154141568" xlink:href="#id5">May</textPath></text><line stroke="#e1ed5e" stroke-width="0.3" x1="143.8653032363475" x2="146.44561519142675" y1="172.8068346515853" y2="177.08958963109032" /><path d="M 144.38136562736335 173.6633856474863 a86.0,86.0 0 0,1 -40.68145358897372,12.25698825130547" fill="none" id="id6" stroke="none" /><text fill="#e1ed5e" style="font-size:6.75px; font-family:Arial;" text-anchor="middle"><textPath startOffset="21.466115282336833" xlink:href="#id6">June</textPath></text><line stroke="#e1ed5e" stroke-width="0.3" x1="102.19456741930631" x2="102.32365962044197" y1="184.97166512339345" y2="189.96999836594603" /><path d="M 102.22038585953345 185.97133177190398 a86.0,86.0 0 0,1 -42.740103519485714,-10.115201625700543" fill="none" id="id7" stroke="none" /><text fill="#e1ed5e" style="font-size:6.75px; font-family:Arial;" text-anchor="middle"><textPath startOffset="22.20632615414155" xlink:href="#id7">July</textPath></text><line stroke="#e1ed5e" stroke-width="0.3" x1="58.666819895761336" x2="56.23545636021788" y1="174.27360380694188" y2="178.64263932499728" /><path d="M 58.180547188652646 175.14741091055294 a86.0,86.0 0 0,1 -31.652253787137756,-30.449443065178592" fill="none" id="id8" stroke="none" /><text fill="#e1ed5e" style="font-size:6.75px; font-family:Arial;" text-anchor="middle"><textPath startOffset="22.20632615414155" xlink:href="#id8">August</textPath></text><path d="M 85.18274418774928 114.88116024355367 l -3.51099322439124 3.526135571135883 a25.976013011211986,25.976013011211986 0 0,0 -0.3141358108512729,-0.3182179178864868 l 3.571169660298046 -3.4651771592687313" fill="#ff3204" stroke="none" /><path d="M 84.9287848128048 114.62390073753433 l -5.396302249954173 5.236139718853642 a28.519124758122928,28.519124758122928 0 0,0 -0.338825466074183,-0.35525714657241836 l 5.485634267407314 -5.142475455698723" fill="#ff5608" stroke="none" /><path d="M 84.67929136418377 114.36230785411682 l -5.478356473715485 5.135652930971869 a28.50914913159276,28.50914913159276 0 0,0 -0.3325437373699567,-0.3609105487292993 l 5.565946619081171 -5.040591127441226" fill="#ff5608" stroke="none" /><path d="M 83.95833913139862 113.55231037782056 l -5.717439872913322 4.830205572785175 a28.484651266140865,28.484651266140865 0 0,0 -0.3132009485233128,-0.37727071879606344 l 5.799736821330171 -4.73107359687535" fill="#ff5607" stroke="none" /><path d="M 83.50135304334701 112.99209946851258 l -5.889080793885357 4.637442309862431 a28.495808413654366,28.495808413654366 0 0,0 -0.30014659804573113,-0.38797993814269083 l 5.968034209149156 -4.535384377606487" fill="#ff5608" stroke="none" /><path d="M 83.06392112726016 112.41649034213515 l -5.150338761076548 3.775911293644434 a27.386195694724606,27.386195694724606 0 0,0 -0.2754532352705703,-0.3825804519700438 l 5.214571788722726 -3.6866972362232517" fill="#ff4606" stroke="none" /><path d="M 82.6465618267979 111.8261652097733 l -9.128719875280305 6.22111585734744 a32.04698189877568,32.04698189877568 0 0,0 -0.30673065917202125,-0.4585207176998258 l 9.234453639863057 -6.063058225441794" fill="#ff870c" stroke="none" /><path d="M 82.44556493220864 111.52570212397912 l -5.274460616165661 3.4630486080480494 a27.30972586196787,27.30972586196787 0 0,0 -0.25462435744187756,-0.3951826572151735 l 5.3332898369845845 -3.371744350911428" fill="#ff4506" stroke="none" /><line stroke="#e1ed5e" stroke-width="0.3" x1="26.63291911575756" x2="22.317208475507996" y1="142.92168965132927" y2="145.44649492493687" /><path d="M 25.769776987707644 143.4266507060508 a86.0,86.0 0 0,1 -11.730757126820373,-40.83630448921669" fill="none" id="id9" stroke="none" /><text fill="#e1ed5e" style="font-size:6.75px; font-family:Arial;" text-anchor="middle"><textPath startOffset="21.46611528233685" xlink:href="#id9">September</textPath></text><path d="M 81.69416730710424 110.29060199501025 l -13.752896899347773 7.731174573911767 a36.77698429410353,36.77698429410353 0 0,0 -0.3054654119106057,-0.5545084510444487 l 13.883938720709894 -7.493295604469496" fill="#ffc512" stroke="none" /><path d="M 81.51974371655577 109.97397251340807 l -6.126658323123017 3.30661657374391 a27.96201518053864,27.96201518053864 0 0,0 -0.2249577299871268,-0.42553524760161676 l 6.1826685613350305 -3.200666311056167" fill="#ff4f07" stroke="none" /><path d="M 80.73074385275274 108.34839909993369 l -7.679145091443497 3.326987169602052 a29.368877640528474,29.368877640528474 0 0,0 -0.1969798856738877,-0.46560226281549927 l 7.735275958309692 -3.1943103811203937" fill="#ff6209" stroke="none" /><path d="M 79.86692584326677 105.97154293290107 l -10.213605165819528 3.029392395447664 a31.65340080766942,31.65340080766942 0 0,0 -0.15044011753336897,-0.5237017850229297 l 10.264237920239001 -2.8531331349201383" fill="#ff810b" stroke="none" /><path d="M 79.4281124754447 104.21870165774334 l -9.530136832081046 1.9543565948448527 a30.72846430522317,30.72846430522317 0 0,0 -0.10179911053662938,-0.5190714714552502 l 9.562365875593343 -1.7900213963216476" fill="#ff750a" stroke="none" /><path d="M 79.35854240842038 103.8639653848113 l -1.4742655727973037 0.2759742676133291 a22.499873586513235,22.499873586513235 0 0,0 -0.06798557266584679,-0.38129919620538566 l 1.4787975878023394 -0.2505563206747298" fill="#ff0000" stroke="none" /><path d="M 79.29508885075956 103.50808413554451 l -7.935173650575964 1.344476032557018 a29.048266687114396,29.048266687114396 0 0,0 -0.07928550882622655,-0.49371093914484904 l 7.957140913763481 -1.2076858637189551" fill="#ff5e08" stroke="none" /><path d="M 79.10278846688536 102.07522291339032 l -11.6633785634899 1.158245941289571 a32.720747978511845,32.720747978511845 0 0,0 -0.05083464823404857,-0.5609561072798164 l 11.681587808001025 -0.9573084454611883" fill="#ff900d" stroke="none" /><path d="M 79.04373962182676 101.35467743843564 l -18.23453702844762 1.178736829328828 a39.27259590629212,39.27259590629212 0 0,0 -0.03780202254216907,-0.674980506452854 l 18.25212540187732 -0.8646846065405365" fill="#ffe515" stroke="none" /><path d="M 79.0095281055655 100.63252640178507 l -22.473694256302334 0.6772217906413962 a43.48389563397491,43.48389563397491 0 0,0 -0.01610547687870166,-0.7483582252970327 l 22.482021795866043 -0.29027374955423474" fill="#e6ff1a" stroke="none" /><line stroke="#e1ed5e" stroke-width="0.3" x1="15.007084014347285" x2="10.007500721073583" y1="101.09737516637583" y2="101.16192664675087" /><path d="M 14.007167355692545 101.11028546245083 a86.0,86.0 0 0,1 10.666146001902534,-42.60595125391555" fill="none" id="id10" stroke="none" /><text fill="#e1ed5e" style="font-size:6.75px; font-family:Arial;" text-anchor="middle"><textPath startOffset="22.20632615414155" xlink:href="#id10">October</textPath></text><path d="M 79.00175016825051 100.2711162175752 l -6.365160545819754 0.08218295644965169 a27.36569107107714,27.36569107107714 0 0,0 -0.002027279989233233,-0.47106847355241416 l 6.36563212309849 0.02739499530643782" fill="#ff4606" stroke="none" /><path d="M 79.00019446554 99.90962569577889 l -15.545695945684189 -0.06690211737527055 a36.54583990426285,36.54583990426285 0 0,0 0.008121865462395319,-0.6290474306722749 l 15.542241073104078 0.33448580610801737" fill="#ffc212" stroke="none" /><path d="M 79.21141760316559 97.0276538004421 l -12.831271157431418 -1.8346118716635451 a33.96176377794242,33.96176377794242 0 0,0 0.08772502539809308,-0.5779983104269866 l 12.797790238594022 2.0552092944826237" fill="#ffa00e" stroke="none" /><path d="M 79.26566170972629 96.67025291283419 l -11.03483099587307 -1.7720939945843968 a32.17621636481341,32.17621636481341 0 0,0 0.09252675283779135,-0.5460981328878252 l 11.002692381515056 1.96177791578805" fill="#ff880c" stroke="none" /><path d="M 79.32604984820605 96.31383870115002 l -10.602706912663248 -1.890460584336713 a31.769922706164966,31.769922706164966 0 0,0 0.10062635286858156,-0.5375500007057143 l 10.568594835884804 2.072688662505" fill="#ff830c" stroke="none" /><path d="M 79.3925641242962 95.95851677861259 l -3.2927930874063702 -0.6457750539426972 a24.35551959266607,24.35551959266607 0 0,0 0.08422452291312164,-0.4107086854548699 l 3.281189268578254 0.7023593955609695" fill="#ff1b02" stroke="none" /><path d="M 79.62865764111835 94.90015583598534 l -10.300240324568277 -2.5786037847572505 a31.61810473778757,31.61810473778757 0 0,0 0.13671618521428217,-0.5268232316724892 l 10.254327807483687 2.755523441978603" fill="#ff810b" stroke="none" /><path d="M 79.71946130924805 94.55025226153421 l -4.730312384583779 -1.271120536451901 a25.898122362082887,25.898122362082887 0 0,0 0.11939432676860921,-0.429524918161266 l 4.707731287248809 1.3523567580321094" fill="#ff3104" stroke="none" /><path d="M 79.81627453868168 94.20196356495316 l -5.665253497751359 -1.6274174089758706 a26.894368890459923,26.894368890459923 0 0,0 0.1316467868019831,-0.44384751997292826 l 5.6364008138376684 1.724694315695338" fill="#ff3f06" stroke="none" /><path d="M 79.91906864156998 93.8553929516997 l -36.20861409713232 -11.079551113401132 a58.86581819675256,58.86581819675256 0 0,0 0.3048254724949867,-0.9663800488811137 l 36.01253314086913 11.701181328708662" fill="#3eff2e" stroke="none" /><path d="M 80.02781315780177 93.51064311812611 l -10.251424892447568 -3.3308898620085157 a31.778986019024458,31.778986019024458 0 0,0 0.17351735895858827,-0.51879481757986 l 10.192570239717208 3.506857782510698" fill="#ff830c" stroke="none" /><path d="M 80.14247586403 93.16781622104843 l -5.4664811264353474 -1.880798604309596 a26.78098774394539,26.78098774394539 0 0,0 0.15373169359061264,-0.43462019951316316 l 5.433296352034926 1.97461643024937" fill="#ff3e05" stroke="none" /><path d="M 80.38941819471856 92.48833698450439 l -5.761265729695231 -2.206802793201115 a27.169453896111143,27.169453896111143 0 0,0 0.17104652625037672,-0.43529475237072723 l 5.722425653563163 2.3056465504676056" fill="#ff4306" stroke="none" /><line stroke="#e1ed5e" stroke-width="0.3" x1="26.266209847984243" x2="21.928928074336255" y1="57.711370442889674" y2="55.22380399835377" /><path d="M 25.398753493254645 57.213857153982495 a86.0,86.0 0 0,1 29.58750427330803,-30.492523968695096" fill="none" id="id11" stroke="none" /><text fill="#e1ed5e" style="font-size:6.75px; font-family:Arial;" text-anchor="middle"><textPath startOffset="21.46611528233685" xlink:href="#id11">November</textPath></text><path d="M 85.83668400450813 84.49514656593479 l -42.48994798647562 -46.514560302195655 a84.0,84.0 0 0,0 1.0759560496161145,-0.9660039649228849 l 41.68298094926353 47.23906327588782" fill="#4dd2ff" stroke="none" /><line stroke="#e1ed5e" stroke-width="0.3" x1="56.762969772571076" x2="54.21961505331055" y1="26.818313649435495" y2="22.513508569990535" /><path d="M 56.25429882871897 25.957352633546506 a86.0,86.0 0 0,1 42.265352541879196,-11.944610805530505" fill="none" id="id12" stroke="none" /><text fill="#e1ed5e" style="font-size:6.75px; font-family:Arial;" text-anchor="middle"><textPath startOffset="22.20632615414155" xlink:href="#id12">December</textPath></text></svg>