<?xml version="1.0" encoding="utf-8" ?>
<svg baseProfile="full" height="200mm" version="1.1" viewBox="0,0,200,200" width="200mm" xmlns="http://www.w3.org/2000/svg" xmlns:ev="http://www.w3.org/2001/xml-events" xmlns:xlink="http://www.w3.org/1999/xlink"><defs /><rect fill="#1a1a1a" height="200" width="200" x="0" y="0" /><text alignment-baseline="middle" fill="#e1ed5e" style="dominant-baseline: central; font-size:9.0px; font-family:Arial;" text-anchor="middle" x="100.0" y="100.0">2025</text><line stroke="#e1ed5e" stroke-width="0.3" x1="100.0" x2="100.0" y1="15.0" y2="10.0" /><path d="M 100.0 14.0 a86.0,86.0 0 0,1 42.46469731375804,11.215312516191453" fill="none" id="id25" stroke="none" /><text fill="#e1ed5e" style="font-size:6.75px; font-family:Arial;" text-anchor="middle"><textPath startOffset="22.20632615414155" xlink:href="#id25">January</textPath></text><line stroke="#e1ed5e" stroke-width="0.3" x1="143.23703022742887" x2="145.7803849466894" y1="26.81831364943548" y2="22.513508569990506" /><path d="M 143.74570117128098 25.957352633546492 a86.0,86.0 0 0,1 28.547481713284135,27.462654790039103" fill="none" id="id26" stroke="none" /><text fill="#e1ed5e" style="font-size:6.75px; font-family:Arial;" text-anchor="middle"><textPath startOffset="19.985693538727396" xlink:href="#id26">February</textPath></text><line stroke="#e1ed5e" stroke-width="0.3" x1="172.23445277983987" x2="176.4835382374775" y1="55.19839476539836" y2="52.563006222186495" /><path d="M 173.08426987136738 54.67131705675599 a86.0,86.0 0 0,1 12.851231095245387,41.99856678651699" fill="none" id="id27" stroke="none" /><text fill="#e1ed5e" style="font-size:6.75px; font-family:Arial;" text-anchor="middle"><textPath startOffset="22.20632615414155" xlink:href="#id27">March</textPath></text><line stroke="#e1ed5e" stroke-width="0.3" x1="184.98032266829074" x2="189.97916517819016" y1="98.17113171792111" y2="98.06355123074" /><path d="M 185.9800911702706 98.14961562048488 a86.0,86.0 0 0,1 -9.607161424134198,41.387399972396054" fill="none" id="id28" stroke="none" /><text fill="#e1ed5e" style="font-size:6.75px; font-family:Arial;" text-anchor="middle"><textPath startOffset="21.466115282336823" xlink:href="#id28">April</textPath></text><line stroke="#e1ed5e" stroke-width="0.3" x1="174.80103733775053" x2="179.2010983576182" y1="140.37084112569926" y2="142.7455964860345" /><path d="M 175.68104954172406 140.8457921977663 a86.0,86.0 0 0,1 -30.038265399797805,32.042727171017184" fill="none" id="id29" stroke="none" /><text fill="#e1ed5e" style="font-size:6.75px; font-family:Arial;" text-anchor="middle"><textPath startOffset="22.206326154141568" xlink:href="#id29">May</textPath></text><line stroke="#e1ed5e" stroke-width="0.3" x1="143.8653032363475" x2="146.44561519142675" y1="172.8068346515853" y2="177.08958963109032" /><path d="M 144.38136562736335 173.6633856474863 a86.0,86.0 0 0,1 -40.68145358897372,12.25698825130547" fill="none" id="id30" stroke="none" /><text fill="#e1ed5e" style="font-size:6.75px; font-family:Arial;" text-anchor="middle"><textPath startOffset="21.466115282336833" xlink:href="#id30">June</textPath></text><path d="M 109.89434966115114 118.52300852407294 l 3.5252602274087126 6.599567175016314 a28.482095065454764,28.482095065454764 0 0,0 -0.4344321030747795,0.22727434379952713 l -3.4111372218074374 -6.6592709377605575" fill="#ff5407" stroke="none" /><path d="M 109.57404056367764 118.69057910512821 l 4.094685400388903 7.993703481572094 a29.981411018289712,29.981411018289712 0 0,0 -0.46135122917701665,0.2313310838037677 l -3.9564802635291256 -8.063002406285165" fill="#ff6909" stroke="none" /><path d="M 105.88484417918355 120.15858648285463 l 2.1004990483603674 7.195278317360799 a28.49560713461193,28.49560713461193 0 0,0 -0.4720349318127388,0.13340178675977166 l -1.976332948443023 -7.23036889745909" fill="#ff5407" stroke="none" /><path d="M 105.18746579009965 120.34920634021253 l 1.9221403517804334 7.540103822540549 a28.781245991911142,28.781245991911142 0 0,0 -0.4811219936408584,0.11824808039697439 l -1.792065073396364 -7.572073161251553" fill="#ff5808" stroke="none" /><path d="M 103.7750983002368 120.6578951692458 l 1.4264660186904339 7.805832625537169 a28.935101025215687,28.935101025215687 0 0,0 -0.4907269519376528,0.08531917076760223 l -1.291890095280731 -7.829230374825778" fill="#ff5b08" stroke="none" /><path d="M 102.70371172650421 120.8252237178851 l 0.3889235063710559 2.9956666422399154 a24.020807859701925,24.020807859701925 0 0,0 -0.41049567699994705,0.04970530976825153 l -0.3373004063197285 -3.001917480733518" fill="#ff1402" stroke="none" /><path d="M 101.98527174616119 120.90594882070398 l 0.9431275743257398 9.931626155650592 a30.97630631632051,30.97630631632051 0 0,0 -0.5312520350095907,0.04583866097261054 l -0.7720312215746075 -9.946389068901867" fill="#ff770a" stroke="none" /><path d="M 101.62511606390274 120.93702456842531 l 0.1257109280904999 1.6195845013245023 a22.624455968739046,22.624455968739046 0 0,0 -0.3885343494973667,0.02679560354099778 l -0.09781381781420288 -1.621508449381785" fill="#ff0000" stroke="none" /><line stroke="#e1ed5e" stroke-width="0.3" x1="102.19456741930631" x2="102.32365962044197" y1="184.97166512339345" y2="189.96999836594603" /><path d="M 102.22038585953345 185.97133177190398 a86.0,86.0 0 0,1 -42.740103519485714,-10.115201625700543" fill="none" id="id31" stroke="none" /><text fill="#e1ed5e" style="font-size:6.75px; font-family:Arial;" text-anchor="middle"><textPath startOffset="22.20632615414155" xlink:href="#id31">July</textPath></text><path d="M 100.54218724476979 120.99299961872073 l 0.2803115766707431 10.853410660131686 a31.857029867209345,31.857029867209345 0 0,0 -0.548305464490604,0.009439575817485689 l -0.0934464222874711 -10.856627713228333" fill="#ff830c" stroke="none" /><path d="M 99.09653310690486 120.98055641714683 l -0.6439943728398875 14.955014262232154 a35.96887371634274,35.96887371634274 0 0,0 -0.6183425036822944,-0.0319612444806149 l 0.9013249449356707 -14.941713210989336" fill="#ffb911" stroke="none" /><path d="M 98.37488393609728 120.93702456842531 l -0.4385367266067258 5.649845216022344 a26.66683910355619,26.66683910355619 0 0,0 -0.45734350623894354,-0.03946152211940884 l 0.535724550587211 -5.641459441624272" fill="#ff3b05" stroke="none" /><path d="M 97.65516085044442 120.86867818915974 l -0.9258109033426711 8.239562960868884 a29.291412642901726,29.291412642901726 0 0,0 -0.5005659398868217,-0.06061156425166353 l 1.0675042662808822 -8.222405867891872" fill="#ff6008" stroke="none" /><path d="M 94.46302465271185 120.25689768951611 l -2.1909372393001547 8.015493788028317 a29.309533479833433,29.309533479833433 0 0,0 -0.48551777023944603,-0.13721217157559198 l 2.3285861776442145 -7.9765928231142045" fill="#ff6008" stroke="none" /><path d="M 90.42595943632237 118.69057910512821 l -2.0963449414243223 4.092514617911323 a25.59818855760105,25.59818855760105 0 0,0 -0.3904444130400847,-0.20426206335999572 l 2.1664802569909027 -4.055823135606611" fill="#ff2b04" stroke="none" /><path d="M 90.10565033884886 118.52300852407294 l -1.9024357828739415 3.5615109056673053 a25.03777436704261,25.03777436704261 0 0,0 -0.3784008774133053,-0.20633432920697312 l 1.9634594721558873 -3.5282359247005664" fill="#ff2303" stroke="none" /><line stroke="#e1ed5e" stroke-width="0.3" x1="58.666819895761336" x2="56.23545636021788" y1="174.27360380694188" y2="178.64263932499728" /><path d="M 58.180547188652646 175.14741091055294 a86.0,86.0 0 0,1 -31.652253787137756,-30.449443065178592" fill="none" id="id32" stroke="none" /><text fill="#e1ed5e" style="font-size:6.75px; font-family:Arial;" text-anchor="middle"><textPath startOffset="22.20632615414155" xlink:href="#id32">August</textPath></text><path d="M 89.4739219176387 118.17145234162733 l -10.609691959442404 18.315797231584423 a42.166813451787505,42.166813451787505 0 0,0 -0.6249365296451848,-0.3692235171113245 l 10.923396360115971 -18.13045514217935" fill="#f7ff19" stroke="none" /><path d="M 88.24862548938628 117.40417183066458 l -3.3558034703063937 4.970055219872556 a26.99690468657814,26.99690468657814 0 0,0 -0.38289724749472986,-0.2633602182703809 l 3.440857602424014 -4.911554212237074" fill="#ff3f05" stroke="none" /><path d="M 86.24171649860922 115.8653595955263 l -1.5233977665967797 1.756705578253011 a23.325243050508334,23.325243050508334 0 0,0 -0.3010707380548931,-0.26565992143896844 l 1.5534108575582606 -1.7302225150417536" fill="#ff0a01" stroke="none" /><path d="M 85.97065885151581 115.62618273729859 l -4.575221530210619 5.095980412623905 a27.84847927764619,27.84847927764619 0 0,0 -0.3539415078984158,-0.323317175593047 l 4.662262587575889 -5.016470470444282" fill="#ff4b07" stroke="none" /><path d="M 85.70375840098266 115.38237550388516 l -3.7326277318922276 4.016208105501519 a26.482922334995,26.482922334995 0 0,0 -0.33124355704829805,-0.3132114583695398 l 3.8012071233313423 -3.9513620103860485" fill="#ff3805" stroke="none" /><path d="M 85.44109423537348 115.13401014063109 l -3.23078589822157 3.3584080655767243 a25.66013757898607,25.66013757898607 0 0,0 -0.3156808459797487,-0.30896014980187286 l 3.2881166965771134 -3.3022978128522817" fill="#ff2c04" stroke="none" /><path d="M 84.9287848128048 114.62390073753433 l -6.874107825104202 6.670083947765603 a30.57827637215586,30.57827637215586 0 0,0 -0.3632895059512622,-0.38090759457759327 l 6.987903882434422 -6.550769236605509" fill="#ff710a" stroke="none" /><path d="M 84.19399662182784 113.82643327865904 l -5.257900791138255 4.599392568451327 a27.98569486366085,27.98569486366085 0 0,0 -0.31404945807086965,-0.3653104694289035 l 5.336292758779903 -4.508204999860893" fill="#ff4d07" stroke="none" /><path d="M 83.06392112726016 112.41649034213515 l -5.36068049893777 3.930120905935834 a27.647010286359244,27.647010286359244 0 0,0 -0.2780765358513579,-0.3862239870364051 l 5.427536827164735 -3.837263313448291" fill="#ff4906" stroke="none" /><path d="M 82.6465618267979 111.8261652097733 l -5.909961210078215 4.027569462382797 a28.151849920051987,28.151849920051987 0 0,0 -0.2694492576606489,-0.40279008084730644 l 5.978413573149594 -3.9252424673296695" fill="#ff5007" stroke="none" /><path d="M 82.24976979558568 111.22182372390057 l -19.36143495078255 12.240439000358203 a43.90618934425528,43.90618934425528 0 0,0 -0.39836579083403023,-0.6422924972536461 l 19.569265381284538 -11.905350171739292" fill="#e2ff1b" stroke="none" /><line stroke="#e1ed5e" stroke-width="0.3" x1="26.63291911575756" x2="22.317208475507996" y1="142.92168965132927" y2="145.44649492493687" /><path d="M 25.769776987707644 143.4266507060508 a86.0,86.0 0 0,1 -11.730757126820373,-40.83630448921669" fill="none" id="id33" stroke="none" /><text fill="#e1ed5e" style="font-size:6.75px; font-family:Arial;" text-anchor="middle"><textPath startOffset="21.46611528233685" xlink:href="#id33">September</textPath></text><path d="M 81.69416730710424 110.29060199501025 l -3.035958695738799 1.7066605565155706 a24.482776974972424,24.482776974972424 0 0,0 -0.20335113650344896,-0.36914138008415454 l 3.0648862416937646 -1.6541486580335933" fill="#ff1b02" stroke="none" /><path d="M 81.51974371655577 109.97397251340807 l -3.617932876358692 1.9526332595551892 a25.11123034433224,25.11123034433224 0 0,0 -0.2020228277172411,-0.3821510557505824 l 3.651008212300819 -1.8900671887184808" fill="#ff2403" stroke="none" /><path d="M 79.50377843672027 104.57218783832718 l -6.3126332964570215 1.4081885823087048 a27.467792066763003,27.467792066763003 0 0,0 -0.09897032813565727,-0.4623564241310024 l 6.33593766331712 -1.2993183387615386" fill="#ff4606" stroke="none" /><path d="M 79.29508885075956 103.50808413554451 l -6.6748498381609584 1.1309362622043087 a27.76998059016169,27.76998059016169 0 0,0 -0.07579650327852741,-0.47198489826881024 l 6.693328095800777 -1.0158721342422847" fill="#ff4a06" stroke="none" /><path d="M 79.23777060512086 103.15116336523772 l -11.840168853910063 1.7970279405482548 a32.97576335388325,32.97576335388325 0 0,0 -0.08034458216445212,-0.5619298205280902 l 11.869347487091114 -1.592952648039764" fill="#ff920d" stroke="none" /><line stroke="#e1ed5e" stroke-width="0.3" x1="15.007084014347285" x2="10.007500721073583" y1="101.09737516637583" y2="101.16192664675087" /><path d="M 14.007167355692545 101.11028546245083 a86.0,86.0 0 0,1 10.666146001902534,-42.60595125391555" fill="none" id="id34" stroke="none" /><text fill="#e1ed5e" style="font-size:6.75px; font-family:Arial;" text-anchor="middle"><textPath startOffset="22.20632615414155" xlink:href="#id34">October</textPath></text><path d="M 79.00019446554 99.90962569577889 l -11.979722498097312 -0.0515556719680588 a32.979833434515314,32.979833434515314 0 0,0 0.007329364185609984,-0.567667333418203 l 11.977060126793987 0.25775926344673367" fill="#ff920d" stroke="none" /><path d="M 79.12142395522702 97.74499172005258 l -12.67268445204899 -1.3687240119848016 a33.74638523826218,33.74638523826218 0 0,0 0.0673475758447841,-0.5769929013666423 l 12.647246523200616 1.5866606516763055" fill="#ff9c0e" stroke="none" /><path d="M 79.16333360222342 97.38593545837743 l -11.241919374402727 -1.4103552965431017 a32.33004206890065,32.33004206890065 0 0,0 0.07402656063339476,-0.5515838606459541 l 11.2159768147115 1.6036574992537151" fill="#ff890c" stroke="none" /><path d="M 79.46518482838121 95.60439243477599 l -7.327021025902076 -1.5683953706349152 a28.493003480089953,28.493003480089953 0 0,0 0.10678853833588363,-0.4787120782316533 l 7.298938100564155 1.6942856184165276" fill="#ff5407" stroke="none" /><path d="M 79.81627453868168 94.20196356495316 l -14.67166246398987 -4.214624980504776 a36.26501697292028,36.26501697292028 0 0,0 0.17751570885524098,-0.5984947224739117 l 14.596940858022922 4.466549089725226" fill="#ffbd11" stroke="none" /><path d="M 80.14247586403 93.16781622104843 l -3.8645150886127984 -1.3296258446493492 a25.086854751135093,25.086854751135093 0 0,0 0.1440068120200537,-0.4071266497465566 l 3.841055195782935 1.395950120822517" fill="#ff2403" stroke="none" /><path d="M 80.38941819471856 92.48833698450439 l -4.89266837017172 -1.874094119604663 a26.239316038340842,26.239316038340842 0 0,0 0.1651908012838786,-0.42039257104544436 l 4.859684019006151 1.9580356955458706" fill="#ff3505" stroke="none" /><path d="M 80.803312248108 91.48605970444005 l -57.59006325567602 -25.54182088667983 a84.0,84.0 0 0,0 0.5975907321465934,-1.3167119646317162 l 57.141870206566075 26.529354860153617" fill="#4dd2ff" stroke="none" /><line stroke="#e1ed5e" stroke-width="0.3" x1="26.266209847984243" x2="21.928928074336255" y1="57.711370442889674" y2="55.22380399835377" /><path d="M 25.398753493254645 57.213857153982495 a86.0,86.0 0 0,1 29.58750427330803,-30.492523968695096" fill="none" id="id35" stroke="none" /><text fill="#e1ed5e" style="font-size:6.75px; font-family:Arial;" text-anchor="middle"><textPath startOffset="21.46611528233685" xlink:href="#id35">November</textPath></text><line stroke="#e1ed5e" stroke-width="0.3" x1="56.762969772571076" x2="54.21961505331055" y1="26.818313649435495" y2="22.513508569990535" /><path d="M 56.25429882871897 25.957352633546506 a86.0,86.0 0 0,1 42.265352541879196,-11.944610805530505" fill="none" id="id36" stroke="none" /><text fill="#e1ed5e" style="font-size:6.75px; font-family:Arial;" text-anchor="middle"><textPath startOffset="22.20632615414155" xlink:href="#id36">December</textPath></text><path d="M 91.56875222667455 80.76684994638697 l -3.2214372408192107 -7.348661491955585 a29.023744987216865,29.023744987216865 0 0,0 0.45928866042877553,-0.1966434350985207 l 3.094464822600127 7.403024455016892" fill="#ff5c08" stroke="none" /></svg>